<svg aria-hidden="true" style="position: absolute; width: 0; height: 0; overflow: hidden;" version="1.1"
     xmlns="http://www.w3.org/2000/svg" xmlns:xlink="http://www.w3.org/1999/xlink">
    <defs>
        <symbol id="icon-search" viewBox="0 0 16 16">
            <g id="Page-1" stroke="none" stroke-width="1">
                <g id="02.-Landing-Page-V2--" transform="translate(-950.000000, -32.000000)" fill=""
                   fill-rule="nonzero" stroke="" stroke-width="1">
                    <g id="Group-15">
                        <g id="Group-2">
                            <g id="Group-12" transform="translate(415.000000, 22.000000)">
                                <g id="Search" transform="translate(536.000000, 11.000000)">
                                    <path d="M13.785978,12.7527343 L10.4047049,9.37148254 C12.1726119,7.09333523 12.0128107,3.79326313 9.92174709,1.70235496 C8.82389604,0.604510881 7.3643598,0 5.81198534,0 C4.25946871,0 2.79993247,0.604510881 1.70236576,1.70221279 C0.604514718,2.7999147 0,4.25944167 0,5.81194845 C0,7.36445523 0.604514718,8.82412438 1.70222359,9.92182629 C2.80007464,11.0195282 4.25946871,11.6241812 5.81198534,11.6241812 C7.11811815,11.6241812 8.35743019,11.1946828 9.37196853,10.4052075 L12.7528152,13.7861749 C12.8952714,13.9287724 13.0823695,14 13.2694677,14 C13.4562815,14 13.6433797,13.9287724 13.7861202,13.7861749 C14.071317,13.5006956 14.071317,13.0380713 13.785978,12.7527343 Z M2.73538645,8.88838565 C1.91377531,8.06663756 1.46095796,6.9740538 1.46095796,5.81209062 C1.46095796,4.6498431 1.91377531,3.55740152 2.73567079,2.73551126 C3.55728193,1.91376316 4.64973044,1.46123303 5.81198534,1.46123303 C6.97395589,1.46123303 8.06668875,1.91376316 8.88858423,2.73551126 C10.5849788,4.4316107 10.5849788,7.1918597 8.88858423,8.88824348 C8.06683092,9.71013374 6.97395589,10.162806 5.81198534,10.162806 C4.64973044,10.162806 3.55728193,9.71013374 2.73538645,8.88838565 Z"
                                          id="Shape"></path>
                                </g>
                            </g>
                        </g>
                    </g>
                </g>
            </g>
        </symbol>
        <symbol id="corp-close-icon" xmlns="http://www.w3.org/2000/svg" viewBox="0 0 137.2 137.3">
            <path
                d="M165.3,56.5l-44.2,44.3,44,44a14.5,14.5,0,0,1,.2,20.3h0a14.4,14.4,0,0,1-20.5,0l-44-44-44.1,44a14.4,14.4,0,0,1-20.5,0h0a14.5,14.5,0,0,1,.2-20.3l44-44L36.2,56.5a14.5,14.5,0,0,1,.2-20.3h0a14.3,14.3,0,0,1,20.1,0h0l44.3,44.2L145,36.2a14.3,14.3,0,0,1,20.1,0h0A14.5,14.5,0,0,1,165.3,56.5Z"
                transform="translate(-32.1 -32.1)"/>
        </symbol>
        <symbol id="icon-join" viewBox="0 0 1024 1024">
            <!-- <title>join</title> -->
            <path class="path1"
                  d="M762.88 486.4h-568.32c-7.68 0-15.36 7.68-15.36 15.36s7.68 15.36 15.36 15.36h568.32l-158.72 145.92c-7.68 5.12-7.68 15.36 0 23.040 2.56 2.56 7.68 5.12 12.8 5.12 2.56 0 7.68-2.56 10.24-5.12l189.44-174.080c2.56-2.56 5.12-7.68 5.12-12.8s-2.56-7.68-5.12-12.8l-189.44-174.080c-7.68-5.12-15.36-5.12-23.040 0-5.12 7.68-5.12 15.36 0 23.040l158.72 151.040z"></path>
        </symbol>
        <symbol id="icon-next" viewBox="0 0 6 10" fill="none">
            <path d="M1 9L5 5L1 1" stroke="white" stroke-width="1.5" stroke-linecap="round" stroke-linejoin="round"/>
        </symbol>
        <symbol id="icon-next-disabled" viewBox="0 0 6 10" fill="none">
            <path d="M1 9L5 5L1 1" stroke="grey" stroke-width="1.5" stroke-linecap="round" stroke-linejoin="round"/>
        </symbol>
        <symbol id="icon-app-correct" width="11" height="9" viewBox="0 0 11 9" fill="none">
            <path fill-rule="evenodd" clip-rule="evenodd" d="M4 8.42L0 4.42L1.41 3.01L4 5.59L9.59 0L11 1.42L4 8.42Z" fill="#F7F7F7"/>
        </symbol>
        <symbol id="icon-sort-both" width="11" height="14" viewBox="0 0 11 14" fill="none">
            <g >
                <path d="M0.853592 4.64642L5.14644 0.353577C5.34175 0.158264 5.65828 0.158264 5.85359 0.353577L10.1464 4.64642C10.3418 4.84174 10.3418 5.15826 10.1464 5.35358L9.44307 6.05695C9.248 6.25201 8.93184 6.25226 8.7364 6.05743L5.49995 2.83002L2.2635 6.05743C2.06819 6.25226 1.75203 6.25201 1.55696 6.05695L0.853592 5.35358C0.658279 5.15826 0.658279 4.84174 0.853592 4.64642Z" fill="black" fill-opacity="0.65"/>
                <path d="M0.853592 9.35345L5.14644 13.6464C5.34175 13.8416 5.65828 13.8416 5.85359 13.6464L10.1464 9.35345C10.3418 9.15826 10.3418 8.84161 10.1464 8.64642L9.44307 7.94305C9.248 7.74799 8.93184 7.74774 8.7364 7.94257L5.49995 11.17L2.2635 7.94257C2.06819 7.74774 1.75203 7.74799 1.55696 7.94305L0.853592 8.64642C0.658279 8.84161 0.658279 9.15826 0.853592 9.35345Z" fill="black" fill-opacity="0.65"/>
            </g>
        </symbol>
        <symbol id="icon-sort" width="10" height="13" viewBox="0 0 10 13" fill="none">
            <path d="M4.64648 0.353516L0.353638 4.64636C0.158325 4.84167 0.158325 5.1582 0.353638 5.35352L1.05701 6.05688C1.25208 6.25195 1.56824 6.2522 1.76355 6.05737L4 3.82716V12.5C4 12.7761 4.22386 13 4.5 13H5.5C5.77614 13 6 12.7761 6 12.5V3.82716L8.23645 6.05737C8.43188 6.2522 8.74805 6.25195 8.94312 6.05688L9.64648 5.35352C9.8418 5.1582 9.8418 4.84167 9.64648 4.64636L5.35364 0.353516C5.15833 0.158203 4.8418 0.158203 4.64648 0.353516Z" fill="black" fill-opacity="0.9"/>
        </symbol>
        <symbol id="icon-union" width="14" height="14" viewBox="0 0 14 14" fill="none">
            <path fill-rule="evenodd" clip-rule="evenodd" d="M14 1.5H4.91465C4.70873 0.917404 4.15311 0.5 3.5 0.5C2.84689 0.5 2.29127 0.917404 2.08535 1.5H0V2.5H2.08535C2.29127 3.0826 2.84689 3.5 3.5 3.5C4.15311 3.5 4.70873 3.0826 4.91465 2.5H14V1.5ZM9.08535 6.5H0V7.5H9.08535C9.29127 8.0826 9.84689 8.5 10.5 8.5C11.1531 8.5 11.7087 8.0826 11.9146 7.5H14V6.5H11.9146C11.7087 5.9174 11.1531 5.5 10.5 5.5C9.84689 5.5 9.29127 5.9174 9.08535 6.5ZM4.91465 11.5H14V12.5H4.91465C4.70873 13.0826 4.15311 13.5 3.5 13.5C2.84689 13.5 2.29127 13.0826 2.08535 12.5H0V11.5H2.08535C2.29127 10.9174 2.84689 10.5 3.5 10.5C4.15311 10.5 4.70873 10.9174 4.91465 11.5Z" fill="#7B8395"/>
        </symbol>

        <symbol id="icon-edit" width="19" height="19" viewBox="0 0 19 19" fill="none" xmlns="http://www.w3.org/2000/svg">
            <path d="M6 18.25H1.5C1.30109 18.25 1.11032 18.171 0.96967 18.0303C0.829018 17.8897 0.75 17.6989 0.75 17.5V13.3107C0.75 13.2122 0.769399 13.1147 0.80709 13.0237C0.844781 12.9327 0.900026 12.85 0.96967 12.7803L12.2197 1.53034C12.3603 1.38969 12.5511 1.31067 12.75 1.31067C12.9489 1.31067 13.1397 1.38969 13.2803 1.53034L17.4697 5.71968C17.6103 5.86033 17.6893 6.0511 17.6893 6.25001C17.6893 6.44892 17.6103 6.63969 17.4697 6.78034L6 18.25Z" stroke="#333333" stroke-width="1.5" stroke-linecap="round" stroke-linejoin="round"/>
        </symbol>
        <symbol id="icon-edit-basic"  width="28" height="30" viewBox="-2 0 24 24" fill="none" xmlns="http://www.w3.org/2000/svg">
            <path d="M16.8428 3.73817L13.6583 1.925C13.4996 1.8343 13.3117 1.80961 13.1349 1.85625C12.9592 1.90274 12.809 2.01672 12.7169 2.17342L5.53484 14.4412C5.48994 14.5181 5.46066 14.6031 5.44867 14.6914L4.81892 19.3967C4.80062 19.5306 4.8231 19.667 4.88344 19.788C4.94377 19.909 5.03916 20.009 5.15717 20.075C5.27543 20.1426 5.41094 20.1739 5.54686 20.1651C5.68278 20.1563 5.81312 20.1078 5.92167 20.0255L9.73776 17.1343C9.8093 17.08 9.86942 17.0121 9.91467 16.9345L15.3138 7.71008L17.094 4.66858C17.1394 4.5912 17.1689 4.50555 17.1809 4.41664C17.1928 4.32772 17.1869 4.23732 17.1635 4.15071C17.1401 4.0641 17.0997 3.98301 17.0447 3.91218C16.9896 3.84135 16.921 3.7822 16.8428 3.73817ZM8.78809 16.1379L6.40476 17.9447L6.79892 15.004L11.7856 6.4845L13.7766 7.61841L8.78809 16.1379ZM14.465 6.4405L12.474 5.30658L13.5667 3.443L15.5558 4.576L14.465 6.4405Z" fill="black" fill-opacity="0.65"/>       
        </symbol>

        <symbol id="icon-trash" width="18" height="20" viewBox="0 0 18 20" fill="none" xmlns="http://www.w3.org/2000/svg">
            <path d="M1.28571 4.85716H16.7143M5.57142 4.85716V3.14287C5.57142 2.68822 5.75203 2.25218 6.07352 1.93069C6.39501 1.6092 6.83105 1.42859 7.28571 1.42859H10.7143C11.1689 1.42859 11.605 1.6092 11.9265 1.93069C12.248 2.25218 12.4286 2.68822 12.4286 3.14287V4.85716M15 4.85716V16.8572C15 17.3118 14.8194 17.7479 14.4979 18.0693C14.1764 18.3908 13.7404 18.5714 13.2857 18.5714H4.71428C4.25962 18.5714 3.82358 18.3908 3.50209 18.0693C3.1806 17.7479 2.99999 17.3118 2.99999 16.8572V4.85716H15Z" stroke="#121212" stroke-width="1.5" stroke-linecap="round" stroke-linejoin="round"/>
        </symbol>
        <symbol id="icon-trash-basic" width="30" height="24" viewBox="-1 -3 24 24" fill="none" xmlns="http://www.w3.org/2000/svg">
            <path d="M19.4792 4.18275H14.6667V2.52266C14.6668 2.43226 14.6491 2.34271 14.6146 2.25915C14.5801 2.17558 14.5295 2.09962 14.4657 2.03561C14.4018 1.9716 14.326 1.92079 14.2425 1.88608C14.1591 1.85137 14.0696 1.83345 13.9792 1.83333H8.02084C7.93043 1.83345 7.84094 1.85137 7.75746 1.88608C7.67398 1.92079 7.59816 1.9716 7.53432 2.03561C7.47048 2.09962 7.41987 2.17558 7.38539 2.25915C7.3509 2.34271 7.33322 2.43226 7.33334 2.52266V4.18275H2.52084C2.34717 4.19544 2.18475 4.27338 2.06619 4.40091C1.94764 4.52845 1.88174 4.69612 1.88174 4.87025C1.88174 5.04437 1.94764 5.21205 2.06619 5.33958C2.18475 5.46711 2.34717 5.54505 2.52084 5.55775H3.66667V16.7209C3.66667 17.6334 4.02857 18.5085 4.67299 19.1545C5.31741 19.8005 6.19173 20.1645 7.10417 20.1667H14.8958C15.8083 20.1645 16.6826 19.8005 17.327 19.1545C17.9714 18.5085 18.3333 17.6334 18.3333 16.7209V5.5605H19.4792C19.6528 5.5478 19.8153 5.46986 19.9338 5.34233C20.0524 5.2148 20.1183 5.04712 20.1183 4.873C20.1183 4.69887 20.0524 4.5312 19.9338 4.40366C19.8153 4.27613 19.6528 4.19819 19.4792 4.1855V4.18275ZM8.70834 3.20833H13.2917V4.18H8.70834V3.20833ZM16.9583 16.7182C16.9591 16.9897 16.9063 17.2588 16.803 17.51C16.6998 17.7612 16.548 17.9895 16.3565 18.1821C16.165 18.3746 15.9374 18.5276 15.6868 18.6321C15.4362 18.7367 15.1674 18.7909 14.8958 18.7917H7.10417C6.55618 18.7902 6.03117 18.5713 5.64445 18.183C5.25774 17.7948 5.04094 17.2689 5.04167 16.7209V5.5605H16.9583V16.7182ZM8.70834 8.03916V15.7786C8.70834 15.9609 8.6359 16.1358 8.50697 16.2647C8.37804 16.3936 8.20317 16.4661 8.02084 16.4661C7.8385 16.4661 7.66363 16.3936 7.5347 16.2647C7.40577 16.1358 7.33334 15.9609 7.33334 15.7786V8.04191C7.33334 7.85958 7.40577 7.68471 7.5347 7.55578C7.66363 7.42685 7.8385 7.35441 8.02084 7.35441C8.20317 7.35441 8.37804 7.42685 8.50697 7.55578C8.6359 7.68471 8.70834 7.85958 8.70834 8.04191V8.03916ZM13.9792 7.35075C14.0695 7.35075 14.159 7.36856 14.2425 7.40317C14.3259 7.43777 14.4018 7.4885 14.4656 7.55243C14.5295 7.61637 14.5801 7.69227 14.6146 7.77579C14.6491 7.8593 14.6668 7.9488 14.6667 8.03916V15.7786C14.6667 15.9609 14.5942 16.1358 14.4653 16.2647C14.3364 16.3936 14.1615 16.4661 13.9792 16.4661C13.7968 16.4661 13.622 16.3936 13.493 16.2647C13.3641 16.1358 13.2917 15.9609 13.2917 15.7786V8.04191C13.2915 7.95155 13.3092 7.86205 13.3437 7.77854C13.3782 7.69502 13.4289 7.61912 13.4927 7.55518C13.5566 7.49125 13.6324 7.44052 13.7159 7.40592C13.7993 7.37131 13.8888 7.3535 13.9792 7.3535V7.35075ZM11.6875 8.03916V15.7786C11.6875 15.9609 11.6151 16.1358 11.4861 16.2647C11.3572 16.3936 11.1823 16.4661 11 16.4661C10.8177 16.4661 10.6428 16.3936 10.5139 16.2647C10.3849 16.1358 10.3125 15.9609 10.3125 15.7786V8.04191C10.3125 7.85958 10.3849 7.68471 10.5139 7.55578C10.6428 7.42685 10.8177 7.35441 11 7.35441C11.1823 7.35441 11.3572 7.42685 11.4861 7.55578C11.6151 7.68471 11.6875 7.85958 11.6875 8.04191V8.03916Z" fill="black" fill-opacity="0.65"/>
        </symbol>

        <symbol id="icon-union" width="14" height="14" viewBox="0 0 14 14" fill="none" xmlns="http://www.w3.org/2000/svg">
        <path fill-rule="evenodd" clip-rule="evenodd" d="M14 1.5H4.91465C4.70873 0.917404 4.15311 0.5 3.5 0.5C2.84689 0.5 2.29127 0.917404 2.08535 1.5H0V2.5H2.08535C2.29127 3.0826 2.84689 3.5 3.5 3.5C4.15311 3.5 4.70873 3.0826 4.91465 2.5H14V1.5ZM9.08535 6.5H0V7.5H9.08535C9.29127 8.0826 9.84689 8.5 10.5 8.5C11.1531 8.5 11.7087 8.0826 11.9146 7.5H14V6.5H11.9146C11.7087 5.9174 11.1531 5.5 10.5 5.5C9.84689 5.5 9.29127 5.9174 9.08535 6.5ZM4.91465 11.5H14V12.5H4.91465C4.70873 13.0826 4.15311 13.5 3.5 13.5C2.84689 13.5 2.29127 13.0826 2.08535 12.5H0V11.5H2.08535C2.29127 10.9174 2.84689 10.5 3.5 10.5C4.15311 10.5 4.70873 10.9174 4.91465 11.5Z" fill="#7B8395"/>
        </symbol>

        <symbol id="icon-plus" width="14" height="14" viewBox="0 0 14 14" fill="white" xmlns="http://www.w3.org/2000/svg">
        <path fill-rule="evenodd" clip-rule="evenodd" d="M14 8H8V14H6V8H0V6H6V0H8V6H14V8Z" />
        </symbol>


        <symbol id="icon-eye" width="22" height="15" viewBox="0 0 22 15" xmlns="http://www.w3.org/2000/svg">
        <path fill-rule="evenodd" clip-rule="evenodd" d="M11 0C6 0 1.73 3.11 0 7.5C1.73 11.89 6 15 11 15C16 15 20.27 11.89 22 7.5C20.27 3.11 16 0 11 0ZM11 12.5C8.24 12.5 6 10.26 6 7.5C6 4.74 8.24 2.5 11 2.5C13.76 2.5 16 4.74 16 7.5C16 10.26 13.76 12.5 11 12.5ZM11 4.5C9.34 4.5 8 5.84 8 7.5C8 9.16 9.34 10.5 11 10.5C12.66 10.5 14 9.16 14 7.5C14 5.84 12.66 4.5 11 4.5Z"/>
        </symbol>

        <symbol id="icon-right" width="8" height="12" viewBox="0 0 8 12" fill="none" xmlns="http://www.w3.org/2000/svg">
        <path d="M1.705 0L0.294998 1.41L4.875 6L0.294998 10.59L1.705 12L7.705 6L1.705 0Z" fill="black" fill-opacity="0.65"/>
        </symbol>


        <symbol id="icon-left" width="8" height="12" viewBox="0 0 8 12" fill="none" xmlns="http://www.w3.org/2000/svg">
        <path d="M7.70501 1.41L6.29501 0L0.295013 6L6.29501 12L7.70501 10.59L3.12501 6L7.70501 1.41Z" fill="black" fill-opacity="0.65"/>
        </symbol>
         <symbol id="icon-download" viewBox="0 0 40 40" fill="ffffff">
            <!-- <title>download</title> -->
            <path d="M26.3,22.4c0.2-0.2,0.2-0.5,0-0.7c-0.2-0.2-0.5-0.2-0.7,0l-5.1,5.1V8.5C20.5,8.2,20.3,8,20,8
	s-0.5,0.2-0.5,0.5v18.3l-5.1-5.1c-0.2-0.2-0.5-0.2-0.7,0c-0.2,0.2-0.2,0.5,0,0.7l5.7,5.7c0,0,0.3,0.3,0.6,0.3c0.2,0,0.4,0,0.6-0.3
	L26.3,22.4z M32,29.9v-4.4c0-0.3-0.2-0.5-0.5-0.5c-0.3,0-0.5,0.2-0.5,0.5v4.4c0,1-1,1.1-1.2,1.1H10.2C9.1,31,9,30.2,9,29.9v-4.4
	C9,25.2,8.8,25,8.5,25S8,25.2,8,25.5v4.4c0,0.6,0.4,2.1,2.2,2.1h19.6C30.7,32,32,31.5,32,29.9"/>
        </symbol>

        <symbol id="icon-wrong-old" viewBox="0 0 1024 1024">
            <!-- <title>wrong</title> -->
            <path class="path1 fill-color4"
                  d="M826.88 320c20.48-17.92 23.040-51.2 2.56-71.68-17.92-20.48-51.2-23.040-71.68-2.56l-245.76 222.72-248.32-225.28c-20.48-17.92-51.2-17.92-71.68 5.12-17.92 20.48-17.92 53.76 2.56 71.68l240.64 217.6-240.64 217.6c-20.48 17.92-23.040 51.2-2.56 71.68 10.24 12.8 25.6 17.92 38.4 17.92s25.6-5.12 33.28-12.8l248.32-225.28 248.32 225.28c7.68 7.68 20.48 12.8 33.28 12.8s28.16-5.12 38.4-17.92c17.92-20.48 17.92-53.76-2.56-71.68l-240.64-217.6 238.080-217.6z"></path>
        </symbol>


        <symbol id="icon-wrong" width="28" height="28" viewBox="0 0 28 28" fill="none" xmlns="http://www.w3.org/2000/svg">
            <rect width="28" height="28" rx="14" fill="black" fill-opacity="0.35"/>
            <path fill-rule="evenodd" clip-rule="evenodd" d="M9.94708 8.88633C9.65418 8.59343 9.17931 8.59343 8.88642 8.88633C8.59352 9.17922 8.59352 9.65409 8.88642 9.94699L12.9394 14L8.88642 18.053C8.59352 18.3459 8.59352 18.8208 8.88642 19.1137C9.17931 19.4065 9.65418 19.4065 9.94708 19.1137L14.0001 15.0607L18.0531 19.1137C18.346 19.4065 18.8209 19.4065 19.1137 19.1137C19.4066 18.8208 19.4066 18.3459 19.1137 18.053L15.0607 14L19.1137 9.94699C19.4066 9.65409 19.4066 9.17922 19.1137 8.88633C18.8209 8.59343 18.346 8.59343 18.0531 8.88633L14.0001 12.9393L9.94708 8.88633Z" fill="white" fill-opacity="0.9"/>
        </symbol>

        <symbol id="icon-calendar" width="22" height="22" viewBox="0 0 22 22" fill="none" xmlns="http://www.w3.org/2000/svg">
            <path d="M19.3077 2.69231H17.2307V1.53847C17.2307 1.35486 17.1578 1.17877 17.028 1.04893C16.8981 0.9191 16.7221 0.846161 16.5384 0.846161C16.3548 0.846161 16.1787 0.9191 16.0489 1.04893C15.9191 1.17877 15.8461 1.35486 15.8461 1.53847V2.69231H6.15382V1.53847C6.15382 1.35486 6.08088 1.17877 5.95105 1.04893C5.82122 0.9191 5.64513 0.846161 5.46152 0.846161C5.2779 0.846161 5.10181 0.9191 4.97198 1.04893C4.84215 1.17877 4.76921 1.35486 4.76921 1.53847V2.69231H2.69228C2.20265 2.69231 1.73308 2.88682 1.38686 3.23304C1.04064 3.57926 0.84613 4.04884 0.84613 4.53847V19.3077C0.84613 19.7973 1.04064 20.2669 1.38686 20.6131C1.73308 20.9593 2.20265 21.1539 2.69228 21.1539H19.3077C19.7973 21.1539 20.2669 20.9593 20.6131 20.6131C20.9593 20.2669 21.1538 19.7973 21.1538 19.3077V4.53847C21.1538 4.04884 20.9593 3.57926 20.6131 3.23304C20.2669 2.88682 19.7973 2.69231 19.3077 2.69231ZM2.69228 4.07693H4.76921V4.76924C4.76921 4.95285 4.84215 5.12894 4.97198 5.25877C5.10181 5.38861 5.2779 5.46155 5.46152 5.46155C5.64513 5.46155 5.82122 5.38861 5.95105 5.25877C6.08088 5.12894 6.15382 4.95285 6.15382 4.76924V4.07693H15.8461V4.76924C15.8461 4.95285 15.9191 5.12894 16.0489 5.25877C16.1787 5.38861 16.3548 5.46155 16.5384 5.46155C16.7221 5.46155 16.8981 5.38861 17.028 5.25877C17.1578 5.12894 17.2307 4.95285 17.2307 4.76924V4.07693H19.3077C19.4301 4.07693 19.5475 4.12556 19.634 4.21211C19.7206 4.29867 19.7692 4.41606 19.7692 4.53847V6.61539H2.23075V4.53847C2.23075 4.41606 2.27937 4.29867 2.36593 4.21211C2.45248 4.12556 2.56988 4.07693 2.69228 4.07693ZM19.3077 19.7692H2.69228C2.56988 19.7692 2.45248 19.7206 2.36593 19.6341C2.27937 19.5475 2.23075 19.4301 2.23075 19.3077V8.00001H19.7692V19.3077C19.7692 19.4301 19.7206 19.5475 19.634 19.6341C19.5475 19.7206 19.4301 19.7692 19.3077 19.7692Z" fill="black" fill-opacity="0.65"/>
        </symbol>


        <symbol id='icon-clock' width="24" height="24" viewBox="0 0 24 24" fill="none" xmlns="http://www.w3.org/2000/svg">
            <rect width="24" height="24" fill="white"/>
            <path d="M17.627 12C17.627 12.1989 17.548 12.3897 17.4073 12.5303C17.2667 12.671 17.0759 12.75 16.877 12.75H12C11.8011 12.75 11.6103 12.671 11.4697 12.5303C11.329 12.3897 11.25 12.1989 11.25 12V5.44C11.25 5.24109 11.329 5.05032 11.4697 4.90967C11.6103 4.76902 11.8011 4.69 12 4.69C12.1989 4.69 12.3897 4.76902 12.5303 4.90967C12.671 5.05032 12.75 5.24109 12.75 5.44V11.25H16.877C17.0759 11.25 17.2667 11.329 17.4073 11.4697C17.548 11.6103 17.627 11.8011 17.627 12V12ZM22 12C22 13.9778 21.4135 15.9112 20.3147 17.5557C19.2159 19.2002 17.6541 20.4819 15.8268 21.2388C13.9996 21.9957 11.9889 22.1937 10.0491 21.8079C8.10929 21.422 6.32746 20.4696 4.92893 19.0711C3.53041 17.6725 2.578 15.8907 2.19215 13.9509C1.8063 12.0111 2.00433 10.0004 2.76121 8.17317C3.51808 6.3459 4.79981 4.78412 6.4443 3.6853C8.08879 2.58649 10.0222 2 12 2C14.6513 2.00291 17.1931 3.05742 19.0679 4.93215C20.9426 6.80688 21.9971 9.34873 22 12V12ZM20.5 12C20.5 10.3189 20.0015 8.67547 19.0675 7.27765C18.1335 5.87984 16.806 4.79037 15.2528 4.14702C13.6996 3.50368 11.9906 3.33535 10.3417 3.66333C8.6929 3.9913 7.17834 4.80085 5.98959 5.98959C4.80085 7.17834 3.9913 8.69289 3.66333 10.3417C3.33535 11.9906 3.50368 13.6996 4.14703 15.2528C4.79037 16.806 5.87984 18.1335 7.27765 19.0675C8.67547 20.0015 10.3189 20.5 12 20.5C14.2535 20.4974 16.414 19.601 18.0075 18.0075C19.601 16.414 20.4974 14.2535 20.5 12V12Z" fill="black" fill-opacity="0.65"/>
        </symbol>

        <symbol id="icon-filter"  width="24" height="24" viewBox="0 0 24 24" fill="none" xmlns="http://www.w3.org/2000/svg">
             <rect width="24" height="24" fill="white"/>
            <path d="M5.66905 5H18.6691C18.8131 5.05051 18.9436 5.13331 19.0507 5.24206C19.1578 5.35082 19.2385 5.48264 19.2868 5.62742C19.335 5.77221 19.3495 5.92612 19.3291 6.07737C19.3087 6.22861 19.254 6.37318 19.1691 6.5L14.1691 12V19L10.1691 16V12L5.16905 6.5C5.08414 6.37318 5.02939 6.22861 5.00898 6.07737C4.98857 5.92612 5.00305 5.77221 5.05132 5.62742C5.09958 5.48264 5.18034 5.35082 5.28741 5.24206C5.39449 5.13331 5.52503 5.05051 5.66905 5Z" stroke="black" stroke-opacity="0.65" stroke-width="1.5" stroke-linecap="round" stroke-linejoin="round"/>
         </symbol>
        
          <symbol id="icon-fail-toast" width="20" height="20" viewBox="0 0 20 20" fill="none" xmlns="http://www.w3.org/2000/svg">
            <path d="M10 0C4.48 0 0 4.48 0 10C0 15.52 4.48 20 10 20C15.52 20 20 15.52 20 10C20 4.48 15.52 0 10 0ZM11 14C11 14.5523 10.5523 15 10 15C9.44771 15 9 14.5523 9 14C9 13.4477 9.44771 13 10 13C10.5523 13 11 13.4477 11 14ZM11 10C11 10.5523 10.5523 11 10 11C9.44771 11 9 10.5523 9 10V6C9 5.44772 9.44771 5 10 5C10.5523 5 11 5.44772 11 6V10Z" fill="#DA3832"/>
        </symbol>

          <symbol id="icon-success-toast" width="20" height="20" viewBox="0 0 20 20" fill="none" xmlns="http://www.w3.org/2000/svg">
                <path d="M10 0C4.48 0 0 4.48 0 10C0 15.52 4.48 20 10 20C15.52 20 20 15.52 20 10C20 4.48 15.52 0 10 0ZM8.70711 14.2929C8.31658 14.6834 7.68342 14.6834 7.29289 14.2929L3.70549 10.7055C3.31586 10.3159 3.31586 9.68414 3.70549 9.29451C4.09474 8.90526 4.7257 8.90482 5.11549 9.29352L8 12.17L14.8804 5.28961C15.2719 4.89811 15.9074 4.89963 16.2975 5.29251C16.6857 5.68343 16.6849 6.31506 16.2954 6.70461L8.70711 14.2929Z" fill="#3AB876"/>
        </symbol>

          <symbol id="icon-info-toast" width="20" height="20" viewBox="0 0 20 20" fill="none" xmlns="http://www.w3.org/2000/svg">
                <path d="M10 0C4.48 0 0 4.48 0 10C0 15.52 4.48 20 10 20C15.52 20 20 15.52 20 10C20 4.48 15.52 0 10 0ZM11 14C11 14.5523 10.5523 15 10 15C9.44771 15 9 14.5523 9 14V10C9 9.44772 9.44771 9 10 9C10.5523 9 11 9.44772 11 10V14ZM11 6C11 6.55228 10.5523 7 10 7C9.44771 7 9 6.55228 9 6C9 5.44772 9.44771 5 10 5C10.5523 5 11 5.44772 11 6Z" fill="#699BF7"/>
        </symbol>

        <symbol id="add-icon" viewBox="0 0 20 20" fill="none" xmlns="http://www.w3.org/2000/svg">
            <circle cx="10" cy="10" r="7.25" stroke="#6A1CA6" stroke-width="1.5"/>
            <path fill-rule="evenodd" clip-rule="evenodd" d="M14.6706 10.4957C15.0848 10.4927 15.4181 10.1545 15.4152 9.74032C15.4122 9.32612 15.0741 8.99274 14.6599 8.9957L10.743 9.02369L10.7151 5.10688C10.7121 4.69268 10.3739 4.3593 9.95972 4.36226C9.54552 4.36522 9.21214 4.70339 9.2151 5.1176L9.24308 9.0344L5.32628 9.06239C4.91208 9.06534 4.5787 9.40352 4.58166 9.81772C4.58462 10.2319 4.92279 10.5653 5.337 10.5623L9.2538 10.5344L9.28178 14.4512C9.28474 14.8654 9.62292 15.1987 10.0371 15.1958C10.4513 15.1928 10.7847 14.8547 10.7817 14.4405L10.7538 10.5236L14.6706 10.4957Z" fill="#6A1CA6"/>
        </symbol>


        <symbol id="modal-close" viewBox="0 0 26 26" fill="none" xmlns="http://www.w3.org/2000/svg">
            <path d="M6.36401 19.0925L19.0919 6.36455" stroke="black" stroke-width="1.5" stroke-linecap="round"/>
            <path d="M19.0918 19.0925L6.36387 6.36455" stroke="black" stroke-width="1.5" stroke-linecap="round"/>
        </symbol>

        <symbol id="trash-icon" viewBox="0 0 20 20" fill="none" xmlns="http://www.w3.org/2000/svg">
            <path d="M17.7083 3.80251H13.3333V2.29334C13.3334 2.21115 13.3174 2.12975 13.286 2.05378C13.2547 1.97781 13.2087 1.90875 13.1506 1.85056C13.0926 1.79237 13.0237 1.74618 12.9478 1.71463C12.8719 1.68308 12.7905 1.66678 12.7083 1.66667H7.29167C7.20948 1.66678 7.12812 1.68308 7.05224 1.71463C6.97635 1.74618 6.90742 1.79237 6.84938 1.85056C6.79135 1.90875 6.74534 1.97781 6.71399 2.05378C6.68264 2.12975 6.66656 2.21115 6.66667 2.29334V3.80251H2.29167C2.1338 3.81404 1.98614 3.8849 1.87836 4.00084C1.77058 4.11678 1.71068 4.26921 1.71068 4.42751C1.71068 4.5858 1.77058 4.73823 1.87836 4.85417C1.98614 4.97011 2.1338 5.04097 2.29167 5.05251H3.33334V15.2008C3.33333 16.0303 3.66234 16.826 4.24817 17.4132C4.83401 18.0004 5.62885 18.3314 6.45834 18.3333H13.5417C14.3712 18.3314 15.166 18.0004 15.7518 17.4132C16.3377 16.826 16.6667 16.0303 16.6667 15.2008V5.05501H17.7083C17.8662 5.04347 18.0139 4.97261 18.1216 4.85667C18.2294 4.74073 18.2893 4.5883 18.2893 4.43001C18.2893 4.27171 18.2294 4.11928 18.1216 4.00334C18.0139 3.8874 17.8662 3.81654 17.7083 3.80501V3.80251ZM7.91667 2.91667H12.0833V3.80001H7.91667V2.91667ZM15.4167 15.1983C15.4173 15.4452 15.3693 15.6898 15.2755 15.9182C15.1816 16.1465 15.0437 16.3541 14.8696 16.5292C14.6955 16.7042 14.4886 16.8432 14.2607 16.9383C14.0329 17.0334 13.7886 17.0827 13.5417 17.0833H6.45834C5.96016 17.082 5.48288 16.883 5.13132 16.5301C4.77976 16.1771 4.58267 15.699 4.58334 15.2008V5.05501H15.4167V15.1983ZM7.91667 7.30834V14.3442C7.91667 14.5099 7.85082 14.6689 7.73361 14.7861C7.6164 14.9033 7.45743 14.9692 7.29167 14.9692C7.12591 14.9692 6.96694 14.9033 6.84973 14.7861C6.73252 14.6689 6.66667 14.5099 6.66667 14.3442V7.31084C6.66667 7.14508 6.73252 6.98611 6.84973 6.8689C6.96694 6.75169 7.12591 6.68584 7.29167 6.68584C7.45743 6.68584 7.6164 6.75169 7.73361 6.8689C7.85082 6.98611 7.91667 7.14508 7.91667 7.31084V7.30834ZM12.7083 6.68251C12.7905 6.68251 12.8718 6.6987 12.9477 6.73016C13.0236 6.76162 13.0925 6.80773 13.1506 6.86586C13.2086 6.92398 13.2546 6.99298 13.286 7.06891C13.3174 7.14483 13.3334 7.22619 13.3333 7.30834V14.3442C13.3333 14.5099 13.2675 14.6689 13.1503 14.7861C13.0331 14.9033 12.8741 14.9692 12.7083 14.9692C12.5426 14.9692 12.3836 14.9033 12.2664 14.7861C12.1492 14.6689 12.0833 14.5099 12.0833 14.3442V7.31084C12.0832 7.22869 12.0993 7.14733 12.1307 7.07141C12.162 6.99548 12.2081 6.92648 12.2661 6.86836C12.3241 6.81023 12.3931 6.76412 12.469 6.73266C12.5448 6.7012 12.6262 6.68501 12.7083 6.68501V6.68251ZM10.625 7.30834V14.3442C10.625 14.5099 10.5592 14.6689 10.4419 14.7861C10.3247 14.9033 10.1658 14.9692 10 14.9692C9.83424 14.9692 9.67527 14.9033 9.55806 14.7861C9.44085 14.6689 9.375 14.5099 9.375 14.3442V7.31084C9.375 7.14508 9.44085 6.98611 9.55806 6.8689C9.67527 6.75169 9.83424 6.68584 10 6.68584C10.1658 6.68584 10.3247 6.75169 10.4419 6.8689C10.5592 6.98611 10.625 7.14508 10.625 7.31084V7.30834Z" fill="black"/>
        </symbol>



          <symbol id="icon-warn-toast" width="20" height="20" viewBox="0 0 20 20" fill="none" xmlns="http://www.w3.org/2000/svg">
                <path d="M0.73804 14.9979C-0.0338891 16.3313 0.92823 18 2.46889 18H17.5311C19.0718 18 20.0339 16.3313 19.262 14.9979L11.7309 1.98965C10.9605 0.659081 9.03948 0.659085 8.26915 1.98965L0.73804 14.9979ZM11 15C11 15.5523 10.5523 16 10 16C9.44771 16 9 15.5523 9 15C9 14.4477 9.44771 14 10 14C10.5523 14 11 14.4477 11 15ZM11 11C11 11.5523 10.5523 12 10 12C9.44771 12 9 11.5523 9 11V7C9 6.44772 9.44771 6 10 6C10.5523 6 11 6.44772 11 7V11Z" fill="#F6A609"/>
        </symbol>

        <symbol id="icon-close-toast" width="12" height="12" viewBox="0 0 12 12" fill="none" xmlns="http://www.w3.org/2000/svg">
                <path d="M11.0792 1.7625C11.4036 1.43803 11.4036 0.911967 11.0792 0.5875C10.7547 0.263033 10.2286 0.263033 9.90417 0.5875L5.83333 4.65833L1.7625 0.5875C1.43803 0.263033 0.911967 0.263033 0.5875 0.5875C0.263033 0.911967 0.263033 1.43803 0.5875 1.7625L4.65833 5.83333L0.5875 9.90417C0.263033 10.2286 0.263033 10.7547 0.5875 11.0792C0.911967 11.4036 1.43803 11.4036 1.7625 11.0792L5.83333 7.00833L9.90417 11.0792C10.2286 11.4036 10.7547 11.4036 11.0792 11.0792C11.4036 10.7547 11.4036 10.2286 11.0792 9.90417L7.00833 5.83333L11.0792 1.7625Z" fill="black" fill-opacity="0.65"/>
        </symbol>

        <symbol id="icon-more" width="4" height="18" viewBox="0 0 4 18" fill="none" xmlns="http://www.w3.org/2000/svg">
            <circle cx="2" cy="2.33337" r="2" fill="black" fill-opacity="0.65"/>
            <circle cx="2" cy="9" r="2" fill="black" fill-opacity="0.65"/>
            <circle cx="2" cy="15.6666" r="2" fill="black" fill-opacity="0.65"/>
        </symbol>  

        <svg id="icon-help" viewBox="0 0 24 24" fill="none" xmlns="http://www.w3.org/2000/svg">
            <path fill-rule="evenodd" clip-rule="evenodd" d="M12 3C7.02944 3 3 7.02944 3 12C3 16.9706 7.02944 21 12 21C16.9706 21 21 16.9706 21 12C21 7.02944 16.9706 3 12 3ZM1 12C1 5.92487 5.92487 1 12 1C18.0751 1 23 5.92487 23 12C23 18.0751 18.0751 23 12 23C5.92487 23 1 18.0751 1 12Z" fill="white"/>
            <path fill-rule="evenodd" clip-rule="evenodd" d="M12.2581 8.02432C11.7926 7.94447 11.3138 8.03195 10.9066 8.27127C10.4994 8.51058 10.1901 8.88629 10.0333 9.33184C9.85006 9.85283 9.27915 10.1266 8.75816 9.94333C8.23717 9.76006 7.96339 9.18915 8.14667 8.66816C8.46014 7.77705 9.07887 7.02563 9.89327 6.547C10.7077 6.06837 11.6652 5.89341 12.5962 6.05311C13.5273 6.2128 14.3718 6.69686 14.9801 7.41953C15.5883 8.14205 15.9213 9.05648 15.92 10.0009C15.9197 11.0711 15.3569 11.889 14.7751 12.4464C14.1931 13.004 13.5031 13.3909 13.0159 13.6243C12.977 13.6429 12.9487 13.6696 12.933 13.6926C12.9257 13.7033 12.9225 13.7113 12.9211 13.7154C12.92 13.719 12.92 13.7205 12.92 13.7207V14C12.92 14.5523 12.4723 15 11.92 15C11.3677 15 10.92 14.5523 10.92 14V13.7208C10.92 12.8509 11.4686 12.1479 12.1518 11.8206C12.5483 11.6307 13.0263 11.3522 13.3915 11.0023C13.7567 10.6523 13.92 10.321 13.92 10L13.92 9.99851C13.9207 9.52619 13.7542 9.06886 13.4501 8.70753C13.1459 8.34619 12.7236 8.10417 12.2581 8.02432Z" fill="white"/>
            <path d="M13 17C13 17.5523 12.5523 18 12 18C11.4477 18 11 17.5523 11 17C11 16.4477 11.4477 16 12 16C12.5523 16 13 16.4477 13 17Z" fill="white"/>
        </svg>

        <svg id="icon-expand-more" focusable="false" aria-hidden="true" viewBox="0 0 24 24">
            <path d="M16.59 8.59 12 13.17 7.41 8.59 6 10l6 6 6-6z"></path>
        </svg>

        <symbol id="icon-add" width="17" height="17" viewBox="0 0 24 24" fill="" stroke-width="1">
            <path d="M19 13h-6v6h-2v-6H5v-2h6V5h2v6h6v2z"></path>
        </symbol>
    </defs>
</svg>
