<svg width="137" height="122" viewBox="0 0 137 122" fill="none" xmlns="http://www.w3.org/2000/svg">
    <path d="M128.259 23.7646C133.155 30.8757 132.071 40.0876 132.071 40.0876C132.071 40.0876 123.051 37.7702 118.155 30.6591C113.26 23.548 114.343 14.3361 114.343 14.3361C114.343 14.3361 123.364 16.6535 128.259 23.7646Z" fill="#2F2E41"/>
    <path d="M124.737 25.1224C125.309 33.7246 131.885 40.2946 131.885 40.2946C131.885 40.2946 137.532 32.9178 136.959 24.3156C136.386 15.7135 129.811 9.14343 129.811 9.14343C129.811 9.14343 124.164 16.5202 124.737 25.1224Z" fill="#FAE2C2"/>
    <path d="M68.5306 0.179102L134.996 33.4479C135.549 33.7245 136.007 34.1573 136.314 34.6921C136.621 35.2269 136.762 35.8399 136.72 36.4543L132.859 93.402C132.841 93.6574 132.761 93.9046 132.624 94.1215C132.487 94.3383 132.299 94.5181 132.075 94.6448C131.852 94.7715 131.601 94.8411 131.344 94.8475C131.086 94.8538 130.832 94.7967 130.602 94.6812L62.6211 60.1403L66.1112 1.56734C66.1276 1.2922 66.2123 1.02542 66.3579 0.790969C66.5035 0.556514 66.7052 0.361724 66.9451 0.224092C67.1849 0.0864608 67.4554 0.0102984 67.7321 0.00244567C68.0089 -0.00540705 68.2832 0.0552956 68.5306 0.179102Z" fill="#D0CDE1"/>
    <path d="M69.2956 1.3396L134.129 33.7912C134.668 34.061 135.115 34.4832 135.414 35.0049C135.713 35.5265 135.851 36.1245 135.81 36.7238L132.044 92.2727C132.027 92.5219 131.948 92.763 131.815 92.9745C131.681 93.186 131.498 93.3614 131.28 93.485C131.062 93.6086 130.816 93.6765 130.566 93.6827C130.315 93.6889 130.067 93.6332 129.843 93.5205L63.5312 59.828L66.9356 2.69375C66.9516 2.42536 67.0343 2.16514 67.1763 1.93644C67.3183 1.70774 67.5151 1.51774 67.749 1.38349C67.983 1.24924 68.2468 1.17494 68.5167 1.16729C68.7867 1.15963 69.0543 1.21884 69.2956 1.3396Z" fill="#3F3D56"/>
    <path d="M72.1368 5.64996L130.906 35.0664C131.395 35.311 131.8 35.6937 132.071 36.1665C132.342 36.6394 132.467 37.1814 132.43 37.7247L129.016 88.0782C129.001 88.304 128.929 88.5226 128.809 88.7143C128.688 88.9061 128.521 89.065 128.324 89.1771C128.126 89.2891 127.904 89.3506 127.676 89.3563C127.449 89.3619 127.224 89.3114 127.021 89.2093L66.9116 58.668L69.9976 6.87745C70.0121 6.63417 70.087 6.39829 70.2157 6.19098C70.3444 5.98367 70.5228 5.81144 70.7349 5.68974C70.947 5.56805 71.1861 5.50071 71.4308 5.49376C71.6755 5.48682 71.9181 5.54049 72.1368 5.64996Z" fill="white"/>
    <path d="M11.4961 88.162L78.0466 121.53C78.6659 121.84 79.3497 122.001 80.0429 122C80.7362 121.999 81.4195 121.836 82.0381 121.525L131.27 96.6431C131.848 96.0684 131.767 95.2167 131.582 94.5772C131.493 94.2676 131.371 93.9683 131.218 93.6841L124.509 90.171L68.1029 62.1519L64.7328 60.3707C63.8407 59.9003 62.8472 59.6525 61.8376 59.6484C60.8281 59.6444 59.8326 59.8842 58.9367 60.3474L11.4753 84.8923C11.1733 85.0478 10.9205 85.2834 10.7446 85.573C10.5688 85.8627 10.4769 86.1951 10.479 86.5335C10.4812 86.872 10.5773 87.2032 10.7568 87.4906C10.9364 87.778 11.1922 88.0104 11.4961 88.162Z" fill="#D0CDE1"/>
    <path opacity="0.1" d="M11.4959 88.162L78.0464 121.53C78.6657 121.84 79.3495 122.001 80.0427 122C80.736 121.999 81.4193 121.836 82.0379 121.525L131.27 96.6431C131.847 96.0684 131.767 95.2167 131.582 94.5772L82.497 119.978C81.8981 120.288 81.234 120.452 80.559 120.458C79.884 120.464 79.2172 120.311 78.613 120.011L10.5026 86.2281C10.4386 86.6139 10.5005 87.0099 10.6793 87.358C10.8581 87.7061 11.1443 87.9879 11.4959 88.162Z" fill="black"/>
    <path opacity="0.1" d="M74.6628 98.1597L53.1103 87.3166C52.6764 87.0983 52.1961 86.9872 51.71 86.9927C51.2239 86.9983 50.7462 87.1202 50.3174 87.3483L37.8147 93.9983C37.6703 94.0751 37.5498 94.19 37.4664 94.3303C37.383 94.4707 37.3399 94.6311 37.3419 94.7942C37.3438 94.9572 37.3907 95.1166 37.4774 95.2549C37.564 95.3933 37.6872 95.5053 37.8335 95.5787L59.8084 106.611C60.1733 106.794 60.5779 106.885 60.9864 106.876C61.395 106.867 61.7949 106.757 62.151 106.557L74.7035 99.5169C74.8259 99.4482 74.9271 99.3476 74.9961 99.2258C75.0652 99.104 75.0994 98.9658 75.0953 98.826C75.0911 98.6863 75.0486 98.5503 74.9723 98.4329C74.8961 98.3154 74.7891 98.221 74.6628 98.1597Z" fill="black"/>
    <path opacity="0.1" d="M125.422 96.3463L102.23 108.613C101.963 108.754 101.666 108.829 101.364 108.832C101.062 108.835 100.763 108.766 100.494 108.63L34.965 75.6386C34.7804 75.5456 34.6254 75.4033 34.5174 75.2276C34.4094 75.0519 34.3526 74.8498 34.3535 74.6438C34.3544 74.4378 34.4129 74.2361 34.5224 74.0613C34.6319 73.8866 34.7881 73.7456 34.9736 73.6542L57.6215 62.4941C57.9629 62.3259 58.3388 62.2391 58.7197 62.2404C59.1005 62.2418 59.4758 62.3313 59.8159 62.5019L125.412 95.4063C125.499 95.45 125.572 95.5166 125.624 95.599C125.676 95.6813 125.703 95.7762 125.704 95.8732C125.706 95.9702 125.68 96.0657 125.63 96.1491C125.58 96.2326 125.508 96.3008 125.422 96.3463Z" fill="black"/>
    <path d="M88.4225 35.1716L88.3062 35.4031L109.629 46.0174L109.745 45.7859L88.4225 35.1716Z" fill="#F9A826"/>
    <path d="M88.4211 38.2845L88.3027 38.5148L109.631 49.3767L109.75 49.1464L88.4211 38.2845Z" fill="#F9A826"/>
    <path d="M92.3249 44.2315L92.2065 44.462L104.426 50.6784L104.545 50.4479L92.3249 44.2315Z" fill="#F9A826"/>
    <path d="M25.5631 57.1926C25.5631 57.1926 20.3634 54.9369 17.9211 57.3197C15.4788 59.7025 24.4601 58.9182 25.5631 57.1926Z" fill="#3F3D56"/>
    <path d="M16.5847 46.4947C18.332 43.5552 21.7891 43.4182 21.7891 43.4182C21.7891 43.4182 25.1578 42.9893 27.3189 47.4662C29.3331 51.6391 32.113 55.668 27.7664 56.6449L26.9813 54.212L26.4951 56.826C25.8762 56.8703 25.2553 56.8809 24.6353 56.8576C19.9805 56.708 15.5474 56.9014 15.6901 55.2384C15.8799 53.0277 14.9033 49.3231 16.5847 46.4947Z" fill="#2F2E41"/>
    <path d="M14.14 99.783C14.14 99.783 16.3459 103.862 17.764 103.862C19.1821 103.862 19.0246 106.528 18.7094 107.156C18.3943 107.783 17.6065 109.195 18.867 111.235C19.3073 111.947 19.2285 112.755 18.9396 113.505C18.1301 115.606 14.9809 114.97 15.0814 112.721C15.0825 112.697 15.0838 112.672 15.0854 112.646C15.243 110.137 13.9824 106.215 12.7219 105.274C11.4614 104.332 10.3584 101.822 10.3584 101.822L14.14 99.783Z" fill="#FFB8B8"/>
    <path d="M29.2663 98.8419C29.2663 98.8419 27.0603 102.921 25.6422 102.921C24.2241 102.921 24.3817 105.587 24.6968 106.215C25.012 106.842 25.7998 108.254 24.5393 110.293C24.099 111.006 24.1777 111.814 24.4667 112.564C25.2762 114.665 28.4254 114.028 28.3249 111.78C28.3238 111.755 28.3224 111.73 28.3209 111.705C28.1633 109.195 29.4238 105.274 30.6844 104.332C31.9449 103.391 33.0479 100.881 33.0479 100.881L29.2663 98.8419Z" fill="#FFB8B8"/>
    <path d="M27.5329 78.7623L28.4783 80.8016C28.4783 80.8016 42.3442 85.3509 41.0837 90.6845C39.8232 96.0181 33.678 104.332 32.7326 104.019C31.7872 103.705 26.7451 102.764 26.5875 100.097C26.43 97.43 30.2116 92.7238 30.2116 92.7238L25.0119 88.0177L17.4454 87.8608L10.9884 92.7238C10.9884 92.7238 17.7638 98.6849 14.77 101.038C11.7762 103.391 7.36437 104.96 6.7341 104.019C6.10383 103.077 -0.986682 89.1158 0.116286 87.8608C1.21925 86.6059 12.4065 81.8997 12.4065 81.8997L15.4003 77.6642L27.0602 77.0367L27.5329 78.7623Z" fill="#2F2E41"/>
    <path d="M24.6968 52.8786C24.6968 52.8786 23.9089 58.0554 25.4846 58.6828C27.0603 59.3103 22.3333 61.9771 22.3333 61.9771H19.6546L17.9214 58.3691C17.9214 58.3691 19.4971 55.5454 18.5517 52.8786C17.6063 50.2118 24.6968 52.8786 24.6968 52.8786Z" fill="#FFB8B8"/>
    <path opacity="0.1" d="M24.6968 52.8786C24.6968 52.8786 23.9089 58.0554 25.4846 58.6828C27.0603 59.3103 22.3333 61.9771 22.3333 61.9771H19.6546L17.9214 58.3691C17.9214 58.3691 19.4971 55.5454 18.5517 52.8786C17.6063 50.2118 24.6968 52.8786 24.6968 52.8786Z" fill="black"/>
    <path d="M25.7996 57.271C25.7996 57.271 24.0664 59.1534 23.7512 59.4672C23.4361 59.7809 22.018 61.5065 19.0242 58.9966C16.0305 56.4867 15.7153 59.4672 15.7153 59.4672V78.2917C15.7153 78.2917 18.2364 77.1936 20.2848 78.2917C22.3331 79.3898 26.5875 77.978 26.5875 77.978L27.3753 58.526L25.7996 57.271Z" fill="#93C3B3"/>
    <path d="M24.6421 57.271C24.6421 57.271 26.1147 56.6435 27.3752 57.271C28.6357 57.8985 33.0476 61.0359 32.7325 62.4478C32.4173 63.8596 28.3206 73.7425 31.1568 78.4486C33.993 83.1547 34.4657 84.4097 34.4657 84.4097L27.5328 80.8016C27.5328 80.8016 22.1755 77.5074 22.6482 75.468C23.1209 73.4287 24.6421 57.271 24.6421 57.271Z" fill="#FBCA6A"/>
    <path d="M18.392 57.271C18.392 57.271 15.085 57.5847 14.9274 57.8985C14.7699 58.2122 9.96407 59.5456 10.2792 60.9575C10.5943 62.3693 14.9274 74.9974 13.0366 77.3505C11.1458 79.7035 7.99448 82.9978 9.09745 83.3116C10.2004 83.6253 12.0912 82.841 13.982 83.3116C15.8728 83.7822 20.2847 79.8604 19.812 75.6249C19.3393 71.3894 19.8083 58.3691 18.392 57.271Z" fill="#FBCA6A"/>
    <path d="M26.2724 87.2334V88.8021C26.2724 88.8021 27.0602 92.4101 24.5391 92.2532C22.0181 92.0964 23.5937 87.8609 23.5937 87.8609L23.7513 86.449L26.2724 87.2334Z" fill="#FFB8B8"/>
    <path d="M19.1818 87.3903C19.1818 87.3903 20.915 90.9983 19.1818 91.312C17.4485 91.6258 16.188 89.2727 16.188 88.6452C16.188 88.0177 19.1818 87.3903 19.1818 87.3903Z" fill="#FFB8B8"/>
    <path d="M16.8972 51.3883C17.0712 51.3883 17.2123 51.1074 17.2123 50.7608C17.2123 50.4143 17.0712 50.1334 16.8972 50.1334C16.7231 50.1334 16.582 50.4143 16.582 50.7608C16.582 51.1074 16.7231 51.3883 16.8972 51.3883Z" fill="#FFB8B8"/>
    <path d="M26.1936 51.3883C26.3676 51.3883 26.5087 51.1074 26.5087 50.7608C26.5087 50.4143 26.3676 50.1334 26.1936 50.1334C26.0195 50.1334 25.8784 50.4143 25.8784 50.7608C25.8784 51.1074 26.0195 51.3883 26.1936 51.3883Z" fill="#FFB8B8"/>
    <path d="M14.1397 59.3104C14.1397 59.3104 10.2006 59.3104 10.3581 60.8791C10.5157 62.4478 15.7154 89.4296 15.7154 89.4296C15.7154 89.4296 17.9213 87.3903 19.8121 87.8609L14.1397 59.3104Z" fill="#FBCA6A"/>
    <path d="M29.4238 59.7809C29.4238 59.7809 33.3629 60.5653 33.3629 62.9184C33.3629 65.2714 27.6905 87.8609 26.9027 87.8609C26.1149 87.8609 23.1211 87.3903 23.1211 86.6059C23.1211 85.8215 29.4238 59.7809 29.4238 59.7809Z" fill="#FBCA6A"/>
    <path opacity="0.2" d="M28.557 64.4086L25.0117 78.2119C25.0117 78.2119 26.6662 66.1342 28.557 64.4086Z" fill="black"/>
    <path opacity="0.2" d="M14.7676 62.4691L18.3532 80.5161C18.3532 80.5161 17.2072 63.5101 14.7676 62.4691Z" fill="black"/>
    <path d="M21.5455 55.3885C24.0691 55.3885 26.115 53.3518 26.115 50.8393C26.115 48.3268 24.0691 46.29 21.5455 46.29C19.0219 46.29 16.9761 48.3268 16.9761 50.8393C16.9761 53.3518 19.0219 55.3885 21.5455 55.3885Z" fill="#FFB8B8"/>
    <path d="M17.3575 46.2113L20.773 44.4303L25.4895 45.1588L26.4653 49.4497L24.0362 49.3569L23.3576 47.7803V49.3308L22.2367 49.2879L21.5861 46.778L21.1796 49.4497L17.1948 49.3689L17.3575 46.2113Z" fill="#2F2E41"/>
    <path d="M68.5734 19.8003L66.6899 24.2599L82.5871 32.5675L87.9428 16.9637" fill="#F2F2F2"/>
    <path d="M82.2209 29.8315L89.2437 13.3798L73.1027 5.47217L66.3237 21.5238L82.2209 29.8315Z" fill="#F56D3F"/>
    <path d="M72.7209 11.7634L72.6025 11.994L84.8225 18.2104L84.9409 17.9798L72.7209 11.7634Z" fill="white"/>
    <path d="M71.8049 13.9522L71.6865 14.1828L83.9065 20.3992L84.0248 20.1686L71.8049 13.9522Z" fill="white"/>
</svg>
