<svg width="211" height="135" viewBox="0 0 211 135" fill="none" xmlns="http://www.w3.org/2000/svg">
    <g clip-path="url(#clip0)">
        <path d="M53.1408 67.0306C55.4587 67.0306 57.3377 65.1527 57.3377 62.8363C57.3377 60.5198 55.4587 58.642 53.1408 58.642C50.8229 58.642 48.9438 60.5198 48.9438 62.8363C48.9438 65.1527 50.8229 67.0306 53.1408 67.0306Z" fill="#F2F2F2"/>
        <path d="M38.7778 113.738C40.2143 113.738 41.3789 112.574 41.3789 111.139C41.3789 109.703 40.2143 108.539 38.7778 108.539C37.3413 108.539 36.1768 109.703 36.1768 111.139C36.1768 112.574 37.3413 113.738 38.7778 113.738Z" fill="#F2F2F2"/>
        <path d="M170.077 103.174H138.159V103.63H170.077V103.174Z" fill="#F2F2F2"/>
        <path d="M147.278 99.0729H146.822V103.288H147.278V99.0729Z" fill="#F2F2F2"/>
        <path d="M161.185 99.0729H160.729V103.288H161.185V99.0729Z" fill="#F2F2F2"/>
        <path d="M171.672 33.6823H139.754V34.1379H171.672V33.6823Z" fill="#F2F2F2"/>
        <path d="M148.874 29.5812H148.418V33.7963H148.874V29.5812Z" fill="#F2F2F2"/>
        <path d="M162.781 29.5812H162.325V33.7963H162.781V29.5812Z" fill="#F2F2F2"/>
        <path d="M171.672 17.2777H139.754V17.7334H171.672V17.2777Z" fill="#F2F2F2"/>
        <path d="M148.874 13.1765H148.418V17.3916H148.874V13.1765Z" fill="#F2F2F2"/>
        <path d="M162.781 13.1765H162.325V17.3916H162.781V13.1765Z" fill="#F2F2F2"/>
        <path d="M101.681 19.5562H69.7627V20.0118H101.681V19.5562Z" fill="#F2F2F2"/>
        <path d="M78.8822 15.455H78.4263V19.67H78.8822V15.455Z" fill="#F2F2F2"/>
        <path d="M92.7895 15.455H92.3335V19.67H92.7895V15.455Z" fill="#F2F2F2"/>
        <path d="M78.4263 8.84753H46.5083V9.30322H78.4263V8.84753Z" fill="#F2F2F2"/>
        <path d="M55.6278 4.74634H55.1719V8.9614H55.6278V4.74634Z" fill="#F2F2F2"/>
        <path d="M69.5351 4.74634H69.0791V8.9614H69.5351V4.74634Z" fill="#F2F2F2"/>
        <path d="M64.063 50.9983H32.145V51.454H64.063V50.9983Z" fill="#F2F2F2"/>
        <path d="M41.2646 46.8971H40.8086V51.1122H41.2646V46.8971Z" fill="#F2F2F2"/>
        <path d="M55.1718 46.8971H54.7158V51.1122H55.1718V46.8971Z" fill="#F2F2F2"/>
        <path d="M48.104 97.478H16.186V97.9337H48.104V97.478Z" fill="#F2F2F2"/>
        <path d="M25.3056 93.3768H24.8496V97.5919H25.3056V93.3768Z" fill="#F2F2F2"/>
        <path d="M39.2128 93.3768H38.7568V97.5919H39.2128V93.3768Z" fill="#F2F2F2"/>
        <path d="M199.031 78.3394H167.113V78.795H199.031V78.3394Z" fill="#F2F2F2"/>
        <path d="M176.232 74.2382H175.776V78.4532H176.232V74.2382Z" fill="#F2F2F2"/>
        <path d="M190.139 74.2382H189.683V78.4532H190.139V74.2382Z" fill="#F2F2F2"/>
        <path d="M189.683 49.1755H157.765V49.6312H189.683V49.1755Z" fill="#F2F2F2"/>
        <path d="M181.02 49.5173H180.564V53.7324H181.02V49.5173Z" fill="#F2F2F2"/>
        <path d="M167.113 49.5173H166.657V53.7324H167.113V49.5173Z" fill="#F2F2F2"/>
        <path d="M35.1089 14.9993H3.19092V15.455H35.1089V14.9993Z" fill="#F2F2F2"/>
        <path d="M26.4457 15.3411H25.9897V19.5561H26.4457V15.3411Z" fill="#F2F2F2"/>
        <path d="M12.5385 15.3411H12.0825V19.5561H12.5385V15.3411Z" fill="#F2F2F2"/>
        <path d="M37.1612 74.6938H5.24316V75.1495H37.1612V74.6938Z" fill="#F2F2F2"/>
        <path d="M28.4975 75.0355H28.0415V79.2506H28.4975V75.0355Z" fill="#F2F2F2"/>
        <path d="M14.5902 75.0355H14.1343V79.2506H14.5902V75.0355Z" fill="#F2F2F2"/>
        <path d="M137.703 0.189575H105.785V0.645263H137.703V0.189575Z" fill="#F2F2F2"/>
        <path d="M129.039 0.53125H128.583V4.74632H129.039V0.53125Z" fill="#F2F2F2"/>
        <path d="M115.132 0.53125H114.676V4.74632H115.132V0.53125Z" fill="#F2F2F2"/>
        <path d="M48.104 31.8595H16.186V32.3152H48.104V31.8595Z" fill="#F2F2F2"/>
        <path d="M25.3056 27.7584H24.8496V31.9735H25.3056V27.7584Z" fill="#F2F2F2"/>
        <path d="M39.2128 27.7584H38.7568V31.9735H39.2128V27.7584Z" fill="#F2F2F2"/>
        <path d="M53.2339 27.4166V134.73H152.636V27.4166H53.2339ZM102.935 35.1632C102.258 35.1632 101.597 34.9628 101.035 34.5873C100.472 34.2117 100.034 33.678 99.7753 33.0535C99.5165 32.429 99.4487 31.7418 99.5807 31.0789C99.7127 30.4159 100.038 29.807 100.517 29.329C100.995 28.851 101.604 28.5255 102.268 28.3937C102.931 28.2618 103.619 28.3295 104.243 28.5881C104.868 28.8468 105.402 29.2849 105.778 29.8469C106.154 30.4089 106.355 31.0697 106.355 31.7456C106.355 32.652 105.994 33.5213 105.353 34.1623C104.712 34.8032 103.842 35.1632 102.935 35.1632Z" fill="#3F3D56"/>
        <path d="M8.49359 125.57C10.0699 131.394 15.469 135 15.469 135C15.469 135 18.3125 129.165 16.7362 123.342C15.1599 117.519 9.76078 113.912 9.76078 113.912C9.76078 113.912 6.91731 119.747 8.49359 125.57Z" fill="#3F3D56"/>
        <path d="M10.8098 124.319C15.1352 128.527 15.6635 134.995 15.6635 134.995C15.6635 134.995 9.17903 134.641 4.85367 130.434C0.52831 126.226 0 119.757 0 119.757C0 119.757 6.48448 120.111 10.8098 124.319Z" fill="#FAE2C2"/>
        <path d="M211 134.502H3.76123V134.958H211V134.502Z" fill="#3F3D56"/>
        <path d="M43.7726 120.453C43.7713 119.443 43.4654 118.458 42.8947 117.624C42.324 116.791 41.5151 116.149 40.5737 115.782C41.6641 115.359 42.5722 114.568 43.1406 113.546C43.7091 112.524 43.9023 111.336 43.6867 110.187C43.4711 109.038 42.8604 108 41.9601 107.253C41.0599 106.506 39.9268 106.098 38.7569 106.098C37.587 106.098 36.4539 106.506 35.5537 107.253C34.6534 108 34.0427 109.038 33.8271 110.187C33.6115 111.336 33.8047 112.524 34.3732 113.546C34.9416 114.568 35.8497 115.359 36.9401 115.782C35.998 116.148 35.1884 116.79 34.6175 117.623C34.0467 118.457 33.7412 119.443 33.7412 120.453C33.7412 121.463 34.0467 122.45 34.6175 123.283C35.1884 124.117 35.998 124.758 36.9401 125.124C35.8497 125.547 34.9416 126.339 34.3732 127.36C33.8047 128.382 33.6115 129.571 33.8271 130.72C34.0427 131.869 34.6534 132.907 35.5537 133.653C36.4539 134.4 37.587 134.809 38.7569 134.809C39.9268 134.809 41.0599 134.4 41.9601 133.653C42.8604 132.907 43.4711 131.869 43.6867 130.72C43.9023 129.571 43.7091 128.382 43.1406 127.36C42.5722 126.339 41.6641 125.547 40.5737 125.124C41.5151 124.757 42.324 124.115 42.8947 123.282C43.4654 122.449 43.7713 121.463 43.7726 120.453ZM34.1972 111.112C34.1965 110.254 34.4378 109.414 34.8933 108.688C35.3489 107.961 36.0003 107.378 36.7726 107.005C37.545 106.632 38.407 106.484 39.2596 106.579C40.1122 106.673 40.9208 107.006 41.5926 107.539C42.2644 108.073 42.772 108.784 43.0572 109.593C43.3424 110.401 43.3936 111.274 43.2049 112.11C43.0162 112.947 42.5953 113.713 41.9905 114.321C41.3857 114.929 40.6215 115.354 39.7858 115.547C39.1072 115.405 38.4066 115.405 37.728 115.547C36.7252 115.314 35.8306 114.749 35.1896 113.944C34.5487 113.139 34.1989 112.141 34.1972 111.112ZM43.3166 129.795C43.3173 130.652 43.076 131.492 42.6205 132.219C42.1649 132.945 41.5135 133.528 40.7412 133.901C39.9688 134.274 39.1068 134.422 38.2542 134.328C37.4016 134.233 36.593 133.9 35.9212 133.367C35.2494 132.834 34.7418 132.122 34.4566 131.314C34.1714 130.505 34.1202 129.632 34.3089 128.796C34.4976 127.96 34.9185 127.194 35.5233 126.586C36.1281 125.978 36.8923 125.553 37.728 125.359C38.4066 125.501 39.1072 125.501 39.7858 125.359C40.7886 125.592 41.6832 126.157 42.3242 126.962C42.9651 127.768 43.3149 128.766 43.3166 129.795ZM39.7858 124.889C39.1072 124.747 38.4066 124.747 37.728 124.889C36.7244 124.657 35.8288 124.093 35.1876 123.287C34.5463 122.482 34.1972 121.483 34.1972 120.453C34.1972 119.424 34.5463 118.425 35.1876 117.619C35.8288 116.814 36.7244 116.249 37.728 116.018C38.4066 116.16 39.1072 116.16 39.7858 116.018C40.7894 116.249 41.685 116.814 42.3262 117.619C42.9675 118.425 43.3166 119.424 43.3166 120.453C43.3166 121.483 42.9675 122.482 42.3262 123.287C41.685 124.093 40.7894 124.657 39.7858 124.889Z" fill="#3F3D56"/>
        <path d="M116.5 49.8591H64.2912C63.868 49.8591 63.462 49.6911 63.1627 49.392C62.8635 49.0929 62.6953 48.6872 62.6953 48.2642C62.6953 47.8412 62.8635 47.4355 63.1627 47.1364C63.462 46.8373 63.868 46.6693 64.2912 46.6693H116.5C116.923 46.6693 117.329 46.8373 117.628 47.1364C117.928 47.4355 118.096 47.8412 118.096 48.2642C118.096 48.6872 117.928 49.0929 117.628 49.392C117.329 49.6911 116.923 49.8591 116.5 49.8591Z" fill="#F2F2F2"/>
        <path d="M116.5 66.2636H64.2912C63.868 66.2636 63.462 66.0956 63.1627 65.7965C62.8635 65.4974 62.6953 65.0917 62.6953 64.6687C62.6953 64.2458 62.8635 63.8401 63.1627 63.541C63.462 63.2419 63.868 63.0739 64.2912 63.0739H116.5C116.923 63.0739 117.329 63.2419 117.628 63.541C117.928 63.8401 118.096 64.2458 118.096 64.6687C118.096 65.0917 117.928 65.4974 117.628 65.7965C117.329 66.0956 116.923 66.2636 116.5 66.2636Z" fill="#F2F2F2"/>
        <path d="M116.5 82.6683H64.2912C63.868 82.6683 63.462 82.5003 63.1627 82.2012C62.8635 81.9021 62.6953 81.4964 62.6953 81.0734C62.6953 80.6504 62.8635 80.2448 63.1627 79.9457C63.462 79.6466 63.868 79.4785 64.2912 79.4785H116.5C116.923 79.4785 117.329 79.6466 117.628 79.9457C117.928 80.2448 118.096 80.6504 118.096 81.0734C118.096 81.4964 117.928 81.9021 117.628 82.2012C117.329 82.5003 116.923 82.6683 116.5 82.6683Z" fill="#F2F2F2"/>
        <path d="M116.5 99.0729H64.2912C63.868 99.0729 63.462 98.9049 63.1627 98.6058C62.8635 98.3067 62.6953 97.901 62.6953 97.478C62.6953 97.055 62.8635 96.6494 63.1627 96.3503C63.462 96.0512 63.868 95.8831 64.2912 95.8831H116.5C116.923 95.8831 117.329 96.0512 117.628 96.3503C117.928 96.6494 118.096 97.055 118.096 97.478C118.096 97.901 117.928 98.3067 117.628 98.6058C117.329 98.9049 116.923 99.0729 116.5 99.0729Z" fill="#F2F2F2"/>
        <path d="M116.5 115.478H64.2912C63.868 115.478 63.462 115.309 63.1627 115.01C62.8635 114.711 62.6953 114.306 62.6953 113.883C62.6953 113.46 62.8635 113.054 63.1627 112.755C63.462 112.456 63.868 112.288 64.2912 112.288H116.5C116.923 112.288 117.329 112.456 117.628 112.755C117.928 113.054 118.096 113.46 118.096 113.883C118.096 114.306 117.928 114.711 117.628 115.01C117.329 115.309 116.923 115.478 116.5 115.478Z" fill="#F2F2F2"/>
        <path d="M107.38 49.8591H64.0632C63.6399 49.8591 63.234 49.6911 62.9347 49.392C62.6354 49.0929 62.4673 48.6872 62.4673 48.2642C62.4673 47.8412 62.6354 47.4355 62.9347 47.1364C63.234 46.8373 63.6399 46.6693 64.0632 46.6693H107.38C107.804 46.6693 108.21 46.8373 108.509 47.1364C108.808 47.4355 108.976 47.8412 108.976 48.2642C108.976 48.6872 108.808 49.0929 108.509 49.392C108.21 49.6911 107.804 49.8591 107.38 49.8591Z" fill="#F56D3F"/>
        <path d="M93.9293 66.2636H64.0632C63.6399 66.2636 63.234 66.0956 62.9347 65.7965C62.6354 65.4974 62.4673 65.0917 62.4673 64.6687C62.4673 64.2458 62.6354 63.8401 62.9347 63.541C63.234 63.2419 63.6399 63.0739 64.0632 63.0739H93.9293C94.3525 63.0739 94.7585 63.2419 95.0578 63.541C95.3571 63.8401 95.5252 64.2458 95.5252 64.6687C95.5252 65.0917 95.3571 65.4974 95.0578 65.7965C94.7585 66.0956 94.3525 66.2636 93.9293 66.2636Z" fill="#93C3B3"/>
        <path d="M77.5143 82.6683H64.0632C63.6399 82.6683 63.234 82.5003 62.9347 82.2012C62.6354 81.9021 62.4673 81.4964 62.4673 81.0734C62.4673 80.6504 62.6354 80.2448 62.9347 79.9457C63.234 79.6466 63.6399 79.4785 64.0632 79.4785H77.5143C77.9376 79.4785 78.3435 79.6466 78.6428 79.9457C78.9421 80.2448 79.1102 80.6504 79.1102 81.0734C79.1102 81.4964 78.9421 81.9021 78.6428 82.2012C78.3435 82.5003 77.9376 82.6683 77.5143 82.6683Z" fill="#F56D3F"/>
        <path d="M111.484 99.0729H64.0632C63.6399 99.0729 63.234 98.9049 62.9347 98.6058C62.6354 98.3067 62.4673 97.901 62.4673 97.478C62.4673 97.055 62.6354 96.6494 62.9347 96.3503C63.234 96.0512 63.6399 95.8831 64.0632 95.8831H111.484C111.907 95.8831 112.313 96.0512 112.613 96.3503C112.912 96.6494 113.08 97.055 113.08 97.478C113.08 97.901 112.912 98.3067 112.613 98.6058C112.313 98.9049 111.907 99.0729 111.484 99.0729Z" fill="#F6DEBE"/>
        <path d="M100.997 115.478H64.0632C63.6399 115.478 63.234 115.309 62.9347 115.01C62.6354 114.711 62.4673 114.306 62.4673 113.883C62.4673 113.46 62.6354 113.054 62.9347 112.755C63.234 112.456 63.6399 112.288 64.0632 112.288H100.997C101.42 112.288 101.826 112.456 102.125 112.755C102.425 113.054 102.593 113.46 102.593 113.883C102.593 114.306 102.425 114.711 102.125 115.01C101.826 115.309 101.42 115.478 100.997 115.478Z" fill="#B7DBD5"/>
        <path d="M138.159 46.6693H137.703V49.8591H138.159V46.6693Z" fill="#F56D3F"/>
        <path d="M141.578 50.0869C141.218 50.0869 140.865 49.98 140.565 49.7797C140.265 49.5794 140.031 49.2947 139.893 48.9617C139.755 48.6286 139.719 48.2621 139.789 47.9086C139.86 47.555 140.034 47.2302 140.289 46.9753C140.544 46.7204 140.869 46.5468 141.222 46.4764C141.576 46.4061 141.943 46.4422 142.276 46.5802C142.61 46.7181 142.894 46.9517 143.095 47.2515C143.295 47.5512 143.402 47.9036 143.402 48.2641C143.402 48.7474 143.209 49.2107 142.867 49.5524C142.525 49.8941 142.062 50.0863 141.578 50.0869ZM141.578 46.8971C141.308 46.8971 141.043 46.9773 140.818 47.1275C140.593 47.2777 140.418 47.4912 140.314 47.741C140.211 47.9908 140.184 48.2657 140.237 48.5308C140.289 48.796 140.42 49.0396 140.611 49.2308C140.802 49.422 141.046 49.5522 141.311 49.6049C141.577 49.6577 141.852 49.6306 142.102 49.5271C142.352 49.4237 142.565 49.2485 142.716 49.0236C142.866 48.7988 142.946 48.5345 142.946 48.2641C142.946 47.9017 142.802 47.5542 142.545 47.2979C142.289 47.0416 141.941 46.8975 141.578 46.8971Z" fill="#F56D3F"/>
        <path d="M138.159 63.0739H137.703V66.2636H138.159V63.0739Z" fill="#F56D3F"/>
        <path d="M141.578 66.4915C141.218 66.4915 140.865 66.3846 140.565 66.1843C140.265 65.9841 140.031 65.6994 139.893 65.3663C139.755 65.0333 139.719 64.6668 139.789 64.3132C139.86 63.9596 140.034 63.6349 140.289 63.3799C140.544 63.125 140.869 62.9514 141.222 62.8811C141.576 62.8108 141.943 62.8469 142.276 62.9848C142.61 63.1228 142.894 63.3564 143.095 63.6561C143.295 63.9559 143.402 64.3083 143.402 64.6688C143.402 65.152 143.209 65.6153 142.867 65.9571C142.525 66.2988 142.062 66.491 141.578 66.4915ZM141.578 63.3018C141.308 63.3018 141.043 63.3819 140.818 63.5321C140.593 63.6824 140.418 63.8959 140.314 64.1457C140.211 64.3955 140.184 64.6703 140.237 64.9355C140.289 65.2007 140.42 65.4443 140.611 65.6355C140.802 65.8266 141.046 65.9568 141.311 66.0096C141.577 66.0623 141.852 66.0353 142.102 65.9318C142.352 65.8283 142.565 65.6531 142.716 65.4283C142.866 65.2035 142.946 64.9392 142.946 64.6688C142.946 64.3064 142.802 63.9589 142.545 63.7026C142.289 63.4463 141.941 63.3021 141.578 63.3018Z" fill="#F56D3F"/>
        <path d="M138.159 79.4785H137.703V82.6683H138.159V79.4785Z" fill="#F56D3F"/>
        <path d="M141.578 82.8962C141.218 82.8962 140.865 82.7893 140.565 82.589C140.265 82.3887 140.031 82.104 139.893 81.771C139.755 81.4379 139.719 81.0714 139.789 80.7179C139.86 80.3643 140.034 80.0395 140.289 79.7846C140.544 79.5297 140.869 79.3561 141.222 79.2858C141.576 79.2154 141.943 79.2515 142.276 79.3895C142.61 79.5274 142.894 79.7611 143.095 80.0608C143.295 80.3606 143.402 80.713 143.402 81.0735C143.402 81.5567 143.209 82.02 142.867 82.3617C142.525 82.7034 142.062 82.8956 141.578 82.8962ZM141.578 79.7064C141.308 79.7064 141.043 79.7866 140.818 79.9368C140.593 80.087 140.418 80.3005 140.314 80.5503C140.211 80.8001 140.184 81.075 140.237 81.3402C140.289 81.6053 140.42 81.8489 140.611 82.0401C140.802 82.2313 141.046 82.3615 141.311 82.4142C141.577 82.467 141.852 82.4399 142.102 82.3364C142.352 82.233 142.565 82.0578 142.716 81.833C142.866 81.6081 142.946 81.3438 142.946 81.0735C142.946 80.711 142.802 80.3635 142.545 80.1072C142.289 79.851 141.941 79.7068 141.578 79.7064Z" fill="#F56D3F"/>
        <path d="M138.159 95.8831H137.703V99.0729H138.159V95.8831Z" fill="#F56D3F"/>
        <path d="M141.578 99.3007C141.218 99.3007 140.865 99.1938 140.565 98.9935C140.265 98.7933 140.031 98.5086 139.893 98.1755C139.755 97.8424 139.719 97.4759 139.789 97.1224C139.86 96.7688 140.034 96.444 140.289 96.1891C140.544 95.9342 140.869 95.7606 141.222 95.6902C141.576 95.6199 141.943 95.656 142.276 95.794C142.61 95.9319 142.894 96.1656 143.095 96.4653C143.295 96.7651 143.402 97.1175 143.402 97.478C143.402 97.9612 143.209 98.4245 142.867 98.7662C142.525 99.108 142.062 99.3002 141.578 99.3007ZM141.578 96.1109C141.308 96.1109 141.043 96.1911 140.818 96.3413C140.593 96.4915 140.418 96.705 140.314 96.9548C140.211 97.2046 140.184 97.4795 140.237 97.7447C140.289 98.0098 140.42 98.2534 140.611 98.4446C140.802 98.6358 141.046 98.766 141.311 98.8188C141.577 98.8715 141.852 98.8444 142.102 98.741C142.352 98.6375 142.565 98.4623 142.716 98.2375C142.866 98.0127 142.946 97.7483 142.946 97.478C142.946 97.1155 142.802 96.768 142.545 96.5117C142.289 96.2555 141.941 96.1113 141.578 96.1109Z" fill="#F56D3F"/>
        <path d="M138.159 112.288H137.703V115.478H138.159V112.288Z" fill="#F56D3F"/>
        <path d="M141.578 115.705C141.218 115.705 140.865 115.598 140.565 115.398C140.265 115.198 140.031 114.913 139.893 114.58C139.755 114.247 139.719 113.881 139.789 113.527C139.86 113.173 140.034 112.849 140.289 112.594C140.544 112.339 140.869 112.165 141.222 112.095C141.576 112.025 141.943 112.061 142.276 112.199C142.61 112.337 142.894 112.57 143.095 112.87C143.295 113.17 143.402 113.522 143.402 113.883C143.402 114.366 143.209 114.829 142.867 115.171C142.525 115.513 142.062 115.705 141.578 115.705ZM141.578 112.516C141.308 112.516 141.043 112.596 140.818 112.746C140.593 112.896 140.418 113.11 140.314 113.359C140.211 113.609 140.184 113.884 140.237 114.149C140.289 114.414 140.42 114.658 140.611 114.849C140.802 115.04 141.046 115.171 141.311 115.223C141.577 115.276 141.852 115.249 142.102 115.146C142.352 115.042 142.565 114.867 142.716 114.642C142.866 114.417 142.946 114.153 142.946 113.883C142.946 113.52 142.802 113.173 142.545 112.916C142.289 112.66 141.941 112.516 141.578 112.516Z" fill="#F56D3F"/>
        <path d="M141.578 49.1755C142.082 49.1755 142.49 48.7675 142.49 48.2642C142.49 47.7608 142.082 47.3528 141.578 47.3528C141.075 47.3528 140.667 47.7608 140.667 48.2642C140.667 48.7675 141.075 49.1755 141.578 49.1755Z" fill="#F56D3F"/>
        <path d="M141.578 98.3893C142.082 98.3893 142.49 97.9813 142.49 97.478C142.49 96.9746 142.082 96.5666 141.578 96.5666C141.075 96.5666 140.667 96.9746 140.667 97.478C140.667 97.9813 141.075 98.3893 141.578 98.3893Z" fill="#F56D3F"/>
        <path d="M141.578 114.794C142.082 114.794 142.49 114.386 142.49 113.883C142.49 113.379 142.082 112.971 141.578 112.971C141.075 112.971 140.667 113.379 140.667 113.883C140.667 114.386 141.075 114.794 141.578 114.794Z" fill="#F56D3F"/>
        <path d="M102.935 33.3405C103.816 33.3405 104.531 32.6265 104.531 31.7456C104.531 30.8648 103.816 30.1508 102.935 30.1508C102.053 30.1508 101.339 30.8648 101.339 31.7456C101.339 32.6265 102.053 33.3405 102.935 33.3405Z" fill="#3F3D56"/>
        <path d="M103.163 -10.4052H102.707V31.7456H103.163V-10.4052Z" fill="#3F3D56"/>
        <path d="M195.295 75.6003V81.2451C195.295 81.2451 196.655 90.3394 196.655 98.2839C196.655 106.228 194.459 124.731 194.459 124.731C194.459 124.731 190.066 126.299 189.752 123.894C189.438 121.49 188.601 108.737 188.601 106.856C188.601 104.974 184.94 90.653 184.94 90.653L182.639 106.542C182.639 106.542 183.371 125.358 182.639 125.88C181.907 126.403 178.35 127.344 177.932 126.403C177.514 125.462 175.317 105.288 175.317 105.288C175.317 105.288 173.539 78.9454 174.585 77.3774C175.631 75.8094 176.572 74.555 176.572 74.555C176.572 74.555 191.53 70.8964 195.295 75.6003Z" fill="#2F2E41"/>
        <path d="M193.936 124.104L194.198 125.807C194.286 126.389 194.343 126.974 194.37 127.562C194.41 128.418 194.553 129.736 195.041 129.946C195.773 130.259 200.525 134.264 197.178 134.474C193.831 134.683 192.157 135.044 191.165 134.275C189.993 133.365 191.321 133.777 190.798 133.777C190.275 133.777 189.647 133.777 189.438 132.941C189.229 132.104 189.752 130.641 189.752 130.641V124.104H193.936Z" fill="#2F2E41"/>
        <path d="M178.318 124.022L178.055 125.726C177.967 126.307 177.91 126.892 177.884 127.48C177.843 128.336 177.701 129.655 177.212 129.864C176.48 130.177 171.728 134.183 175.075 134.392C178.422 134.601 180.097 134.962 181.088 134.193C182.26 133.283 180.933 133.695 181.456 133.695C181.979 133.695 182.606 133.695 182.815 132.859C183.025 132.022 182.502 130.559 182.502 130.559V124.022H178.318Z" fill="#2F2E41"/>
        <path d="M181.279 30.2333C181.279 30.2333 183.057 34.6236 184.313 35.3554C185.568 36.0871 184.94 39.4321 184.94 39.4321L181.802 43.8225H179.292L176.258 38.5959C176.258 38.5959 176.049 35.1463 175.422 34.3101C174.794 33.4738 181.279 30.2333 181.279 30.2333Z" fill="#FFB9B9"/>
        <path opacity="0.1" d="M181.279 30.2333C181.279 30.2333 183.057 34.6236 184.313 35.3554C185.568 36.0871 184.94 39.4321 184.94 39.4321L181.802 43.8225H179.292L176.258 38.5959C176.258 38.5959 176.049 35.1463 175.422 34.3101C174.794 33.4738 181.279 30.2333 181.279 30.2333Z" fill="black"/>
        <path d="M183.894 39.2231L188.601 40.2685L192.053 74.9733C192.053 74.9733 190.17 75.2869 188.288 77.7956C186.405 80.3044 184.104 79.8863 182.953 79.2591C181.802 78.6319 177.2 76.8548 177.096 76.1231C176.991 75.3914 177.305 62.5339 177.305 62.5339L174.376 42.4637L175.84 40.2685H178.455L180.547 42.0455L183.894 39.2231Z" fill="#DB5353"/>
        <path d="M176.781 35.669C179.785 35.669 182.221 33.2353 182.221 30.2333C182.221 27.2313 179.785 24.7976 176.781 24.7976C173.777 24.7976 171.342 27.2313 171.342 30.2333C171.342 33.2353 173.777 35.669 176.781 35.669Z" fill="#FFB9B9"/>
        <path d="M184.626 37.446C184.626 37.446 194.877 38.4914 195.818 40.6865C196.76 42.8817 195.191 52.6032 195.191 52.6032C195.191 52.6032 198.956 61.0704 198.852 63.0565C198.747 65.0426 202.408 78.6318 198.433 77.0638C194.459 75.4958 195.714 71.4191 193.726 74.346C191.739 77.2729 190.902 76.8548 190.902 76.8548C190.902 76.8548 188.915 80.0953 188.287 79.7817C187.66 79.4681 187.241 77.0638 188.601 75.914C189.961 74.7641 189.752 72.778 187.137 69.0148C184.522 65.2517 181.802 45.495 183.371 42.4636C184.94 39.4322 184.626 37.446 184.626 37.446Z" fill="#FBCA6A"/>
        <path d="M195.296 77.5865L193.517 79.2591L191.321 77.7957L192.262 75.6005L195.296 77.5865Z" fill="#FFB9B9"/>
        <path d="M177.095 39.2231C177.095 39.2231 169.146 42.1501 169.146 45.286C169.146 48.422 173.958 62.1158 173.958 62.1158C173.958 62.1158 173.958 65.6699 173.748 66.5061C173.539 67.3424 170.248 74.6361 173.121 75.2868C174.914 75.693 176.387 76.7601 176.52 78.266C176.678 80.0543 175.308 82.3114 175.422 82.7086C175.631 83.4404 176.886 84.4857 176.782 83.963C176.677 83.4404 177.618 75.914 179.083 72.569C180.547 69.224 178.455 46.7495 178.037 43.8226C177.835 42.2687 177.52 40.7315 177.095 39.2231Z" fill="#FBCA6A"/>
        <path d="M172.912 77.3773L174.794 81.8724L176.206 78.9977L174.585 75.3912L172.912 77.3773Z" fill="#FFB9B9"/>
        <path d="M182.909 33.601C182.909 33.601 184.626 34.3101 185.672 34.3101C186.718 34.3101 191.007 36.5053 189.542 37.8642C188.078 39.2231 185.881 39.5367 184.835 41.5228C183.789 43.5089 183.267 43.8225 183.267 43.8225L181.404 41.3226C181.404 41.3226 183.999 38.3868 183.894 37.4461C183.789 36.5053 182.909 33.601 182.909 33.601Z" fill="#DB5353"/>
        <path d="M175.976 36.1143C175.976 36.1143 174.69 36.6098 174.376 37.446C174.062 38.2823 172.075 39.8503 172.912 40.2684C173.748 40.6865 177.409 42.3591 178.141 42.6727C178.874 42.9862 180.238 41.7829 180.238 41.7829C180.238 41.7829 178.403 40.7388 178.403 40.0071C178.403 39.2754 175.976 36.1143 175.976 36.1143Z" fill="#DB5353"/>
        <path d="M171.656 43.8225L169.146 44.4497C169.146 44.4497 165.694 59.9205 166.74 63.7882C167.786 67.6559 172.702 79.259 172.702 79.259L175.84 75.6004C175.84 75.6004 174.472 67.2807 173.692 66.7366C172.912 66.1925 173.435 65.0426 173.435 64.729C173.435 64.4154 173.748 64.6245 173.016 63.8927C172.284 63.161 175.736 59.0842 174.794 57.9344C173.853 56.7845 171.656 43.8225 171.656 43.8225Z" fill="#FBCA6A"/>
        <path opacity="0.1" d="M196.394 46.6971L194.877 41.0001C194.877 41.0001 198.956 43.927 199.793 48.2129C200.63 52.4987 203.873 61.0703 201.781 64.8335C199.689 68.5967 196.028 79.468 194.773 79.259C193.517 79.0499 190.484 76.4366 190.379 76.0185C190.275 75.6003 195.819 65.9834 194.982 65.2516C194.145 64.5199 194.354 62.6383 194.982 62.2202C195.609 61.8021 196.341 59.816 195.819 59.9205C195.296 60.025 193.727 58.9797 194.04 57.8298C194.354 56.68 192.471 48.9446 192.471 48.9446L196.394 46.6971Z" fill="black"/>
        <path d="M194.354 40.2684L195.819 40.6866C195.819 40.6866 199.898 43.6135 200.735 47.8993C201.571 52.1851 204.814 60.7568 202.722 64.52C200.63 68.2831 196.969 79.1545 195.714 78.9454C194.459 78.7364 191.425 76.1231 191.321 75.7049C191.216 75.2868 196.76 65.6698 195.923 64.9381C195.086 64.2064 195.296 62.3248 195.923 61.9067C196.551 61.4885 197.283 59.5024 196.76 59.607C196.237 59.7115 194.668 58.6662 194.982 57.5163C195.296 56.3664 193.413 48.631 193.413 48.631L194.354 40.2684Z" fill="#FBCA6A"/>
        <path d="M181.003 25.3267L182.023 24.956C182.023 24.956 179.89 22.8243 176.922 23.0097L177.757 22.1755C177.757 22.1755 175.716 21.4341 173.862 23.3804C172.887 24.4035 171.758 25.6061 171.055 26.9609H169.963L170.419 27.8723L168.823 28.7836L170.461 28.6199C170.306 29.4068 170.359 30.2205 170.616 30.9803L170.987 31.9998C170.987 31.9998 172.471 29.034 172.471 28.6632V29.59C172.471 29.59 173.491 28.7559 173.491 28.1998L174.047 28.8486L174.325 27.8291L177.757 28.8486L177.2 28.0145L179.333 28.2925L178.499 27.273C178.499 27.273 180.91 28.4779 181.003 29.4974C181.095 30.5169 182.301 31.8144 182.301 31.8144L182.857 30.8876C182.857 30.8876 183.692 26.7169 181.003 25.3267Z" fill="#2F2E41"/>
        <path d="M180.792 30.8342C181.233 30.8342 181.59 30.2732 181.59 29.5811C181.59 28.889 181.233 28.328 180.792 28.328C180.351 28.328 179.994 28.889 179.994 29.5811C179.994 30.2732 180.351 30.8342 180.792 30.8342Z" fill="#FFB9B9"/>
    </g>
    <defs>
        <clipPath id="clip0">
            <rect width="211" height="147" fill="white" transform="translate(0 -12)"/>
        </clipPath>
    </defs>
</svg>
