<svg width="20" height="18" viewBox="0 0 20 18" fill="none" xmlns="http://www.w3.org/2000/svg">
<path d="M0.73804 14.9979C-0.0338891 16.3313 0.92823 18 2.46889 18H17.5311C19.0718 18 20.0339 16.3313 19.262 14.9979L11.7309 1.98965C10.9605 0.659081 9.03948 0.659085 8.26915 1.98965L0.73804 14.9979ZM11 15C11 15.5523 10.5523 16 10 16C9.44771 16 9 15.5523 9 15C9 14.4477 9.44771 14 10 14C10.5523 14 11 14.4477 11 15ZM11 11C11 11.5523 10.5523 12 10 12C9.44771 12 9 11.5523 9 11V7C9 6.44772 9.44771 6 10 6C10.5523 6 11 6.44772 11 7V11Z" fill="#F6A609"/>
</svg>
