<svg width="88" height="70" viewBox="0 0 88 70" fill="none" xmlns="http://www.w3.org/2000/svg">
<g clip-path="url(#clip0_1813_7715)">
<path d="M22.5679 68.7932C20.7146 68.4371 -1.55235 65.2285 0.0882739 41.5623C1.7289 17.8962 3.78515 10.7816 12.4424 8.17847C21.0996 5.57534 42.1408 -6.74378 58.6538 4.97072C62.9413 8.01134 67.3084 10.954 71.4813 14.1363C77.2143 18.5113 83.11 23.561 85.9275 30.1795C87.2494 33.2661 87.7506 36.642 87.3827 39.9795C86.9513 43.8846 86.344 47.6838 85.238 51.4892C84.8618 52.7842 84.4852 54.0795 84.1084 55.3751C83.8826 56.1521 83.6551 56.9343 83.299 57.6676C81.0091 62.3926 78.1208 65.4866 73.2811 68.0005C69.0811 70.181 63.8766 70.1241 59.2374 69.8843C40.788 68.9315 31.38 70.4864 22.5679 68.7932Z" fill="#F9F9F9"/>
<path d="M12.3371 59.8502C11.3474 59.5973 10.9782 59.2919 11.4384 58.9227C14.6401 56.3572 29.3558 56.2845 36.4923 56.2145C45.4698 56.127 54.8087 55.9643 62.9103 56.4989C66.3009 56.722 73.9729 56.8813 75.3108 57.7239C78.8178 59.9394 54.3747 60.8083 50.4171 60.8792C43.8222 60.9999 17.9878 61.293 12.3371 59.8502Z" fill="#E5E5E5"/>
<path d="M68.9041 57.3124H16.0891C15.7603 57.3131 15.4434 57.1895 15.2019 56.9664C14.9605 56.7433 14.8123 56.4371 14.7871 56.1092L12.2986 24.0562C12.2851 23.8775 12.3087 23.6979 12.3678 23.5287C12.427 23.3595 12.5204 23.2043 12.6423 23.0729C12.7642 22.9414 12.9119 22.8366 13.0762 22.7649C13.2405 22.6932 13.4179 22.6562 13.5971 22.6563H71.3996C71.5789 22.6562 71.7563 22.6932 71.9206 22.7649C72.085 22.8366 72.2327 22.9414 72.3547 23.0728C72.4767 23.2042 72.5702 23.3594 72.6294 23.5286C72.6887 23.6978 72.7124 23.8775 72.699 24.0562L70.2026 56.1092C70.1777 56.4365 70.0301 56.7423 69.7893 56.9654C69.5485 57.1885 69.2324 57.3124 68.9041 57.3124Z" fill="#E3E3E3"/>
<path d="M70.3952 22.9524L44.4952 23.2499C44.3046 23.2512 44.116 23.2114 43.9422 23.1331C43.7684 23.0549 43.6135 22.9402 43.4881 22.7966L36.3761 14.6495C36.2503 14.505 36.0946 14.3896 35.9198 14.3112C35.745 14.2328 35.5553 14.1933 35.3637 14.1954L15.125 14.4281C14.9475 14.4302 14.7722 14.4679 14.6096 14.5391C14.447 14.6102 14.3003 14.7134 14.1783 14.8424C14.0564 14.9713 13.9616 15.1235 13.8997 15.2899C13.8377 15.4562 13.8098 15.6333 13.8177 15.8106L15.5292 55.0054C15.5444 55.3489 15.6926 55.6731 15.9424 55.9093C16.1922 56.1456 16.5241 56.2755 16.868 56.2715L69.5368 55.6669C69.8793 55.6637 70.2072 55.528 70.4518 55.2884C70.6965 55.0488 70.8389 54.7238 70.8493 54.3815L71.7418 24.3156C71.7472 24.1366 71.7161 23.9583 71.6506 23.7916C71.585 23.6248 71.4863 23.4732 71.3604 23.3457C71.2345 23.2182 71.084 23.1177 70.9181 23.0501C70.7522 22.9825 70.5743 22.9492 70.3952 22.9524Z" fill="#E3E3E3"/>
<path d="M71.3807 24.6092H45.4807C45.2891 24.6092 45.0998 24.5677 44.9257 24.4875C44.7517 24.4073 44.5972 24.2903 44.4727 24.1446L37.4552 15.9196C37.3309 15.7737 37.1764 15.6564 37.0024 15.5761C36.8283 15.4957 36.6389 15.4541 36.4472 15.4541H16.2093C16.0318 15.4541 15.856 15.4898 15.6925 15.5591C15.5291 15.6284 15.3812 15.7299 15.2577 15.8575C15.1342 15.985 15.0376 16.1361 14.9736 16.3018C14.9097 16.4674 14.8797 16.6443 14.8855 16.8217L16.1472 56.0331C16.1588 56.3764 16.3034 56.7018 16.5504 56.9405C16.7974 57.1792 17.1276 57.3125 17.4711 57.3124H70.1461C70.4879 57.3124 70.8166 57.1803 71.0633 56.9437C71.31 56.7071 71.4557 56.3843 71.47 56.0427L72.7046 25.9874C72.7118 25.809 72.6829 25.6311 72.6196 25.4642C72.5563 25.2973 72.4599 25.1449 72.3363 25.0162C72.2126 24.8875 72.0642 24.7851 71.9 24.7152C71.7358 24.6452 71.5592 24.6092 71.3807 24.6092Z" fill="#E3E3E3"/>
<path d="M71.4006 24.4441H46.5926C46.261 24.4441 45.9285 24.452 45.5977 24.4441C45.1208 24.4327 44.7875 24.1877 44.4935 23.8439C42.2456 21.2075 40.0161 18.5501 37.7481 15.9347C37.3806 15.5104 36.9518 15.2925 36.3831 15.2855C36.0016 15.2802 35.6201 15.2855 35.2386 15.2855H17.9381C16.9712 15.2855 15.5887 15.0457 14.9473 15.9531C14.5527 16.5105 14.6918 17.3059 14.712 17.9516C14.8094 20.9581 14.9062 23.9646 15.0025 26.9711L15.426 40.132C15.5508 44.003 15.6753 47.8737 15.7996 51.7441C15.8363 52.8746 15.8728 54.0048 15.909 55.1347C15.9361 55.9765 15.8678 56.918 16.8006 57.3397C17.2652 57.5506 17.8865 57.478 18.387 57.478H69.5631C69.7381 57.478 69.9052 57.4824 70.0758 57.478C70.8336 57.457 71.5275 56.9827 71.6596 56.2022C71.7655 55.5757 71.7261 54.8976 71.7471 54.265C71.8118 52.7087 71.876 51.1523 71.9396 49.596C72.1187 45.2519 72.2978 40.9075 72.4768 36.5629C72.6104 33.3079 72.7446 30.0529 72.8793 26.7979C72.889 26.5459 72.903 26.293 72.91 26.041C72.9336 25.1721 72.3255 24.4844 71.4452 24.4459C71.2273 24.4362 71.02 24.7609 71.3043 24.7731C72.7227 24.8352 72.4716 26.2772 72.4322 27.2362C72.3739 28.6257 72.3155 30.015 72.2572 31.4039C72.0822 35.6249 71.9072 39.8459 71.7322 44.0669C71.5975 47.5599 71.4578 51.0529 71.3131 54.5459C71.286 55.21 71.4216 56.351 70.8957 56.8515C70.4766 57.2496 69.7705 57.1464 69.2332 57.1464H18.2881C17.5312 57.1464 16.6492 57.2339 16.399 56.2609C16.2703 55.763 16.3325 55.1715 16.3167 54.6649C16.2187 51.6315 16.121 48.5982 16.0236 45.5649L15.6036 32.502C15.4811 28.6928 15.3583 24.884 15.2352 21.0754C15.2002 19.967 15.1646 18.8561 15.1285 17.7425C15.1005 16.8806 14.9465 15.6775 16.1933 15.6171C17.0683 15.5742 17.9547 15.6171 18.8306 15.6171H35.7181C35.964 15.6171 36.2177 15.5987 36.4636 15.6171C37.0997 15.6696 37.4637 16.2515 37.8426 16.696L41.6926 21.2084C42.5518 22.2164 43.3813 23.2629 44.2773 24.2394C44.931 24.9507 46.0212 24.774 46.9023 24.774H71.3665C71.6158 24.7757 71.6841 24.4441 71.4006 24.4441Z" fill="#6A79A8"/>
<path d="M67.6682 18.5142H19.1048C18.623 18.5142 18.2324 18.9047 18.2324 19.3865V47.3235C18.2324 47.8053 18.623 48.1959 19.1048 48.1959H67.6682C68.15 48.1959 68.5406 47.8053 68.5406 47.3235V19.3865C68.5406 18.9047 68.15 18.5142 67.6682 18.5142Z" fill="white"/>
<path d="M67.8043 48.1082H19.8805C19.2776 48.1082 18.5243 48.1782 18.4473 47.326C18.4044 46.8587 18.4429 46.3722 18.4429 45.9032V19.5859C18.4429 19.1947 18.4726 18.6925 18.9679 18.6006C19.0462 18.5936 19.125 18.5936 19.2033 18.6006H66.0525C66.5101 18.6006 66.9695 18.5875 67.4263 18.6006C67.9233 18.6146 68.2969 18.92 68.3284 19.4432C68.3363 19.5684 68.3284 19.6961 68.3284 19.8221V46.269C68.3284 46.7651 68.5113 48.0592 67.7588 48.1065C67.6459 48.1135 67.2994 48.2964 67.5768 48.2815C68.2068 48.2386 68.7361 47.8772 68.751 47.2061C68.7563 46.9856 68.751 46.7686 68.751 46.5429V19.8414C68.751 19.6751 68.7606 19.5062 68.751 19.34C68.7213 18.7844 68.3135 18.444 67.7719 18.4265C66.5023 18.3854 65.223 18.4265 63.9525 18.4265H19.4378C18.7378 18.4265 18.0378 18.7004 18.0203 19.508C18.0063 20.1616 18.0203 20.8205 18.0203 21.4715V45.7204C18.0203 46.2681 17.9923 46.8237 18.0203 47.3706C18.0631 48.1984 18.7631 48.2824 19.3949 48.2824H67.5313C67.6223 48.2824 68.009 48.1082 67.8043 48.1082Z" fill="#6A79A8"/>
<path d="M67.6682 20.4897H19.1048C18.623 20.4897 18.2324 20.8803 18.2324 21.3621V49.2991C18.2324 49.7809 18.623 50.1715 19.1048 50.1715H67.6682C68.15 50.1715 68.5406 49.7809 68.5406 49.2991V21.3621C68.5406 20.8803 68.15 20.4897 67.6682 20.4897Z" fill="white"/>
<path d="M67.7565 50.0751H19.8328C19.2133 50.0751 18.4958 50.1302 18.4433 49.2421C18.4161 48.7774 18.4433 48.3032 18.4433 47.8421V21.5431C18.4433 21.1362 18.494 20.6628 19.0155 20.5858C19.0918 20.5801 19.1685 20.5801 19.2448 20.5858H66.0686C66.5333 20.5858 67.0014 20.5709 67.4686 20.5858C67.9464 20.6007 68.3034 20.9192 68.3314 21.4188C68.3384 21.5439 68.3314 21.6717 68.3314 21.7977V48.2446C68.3314 48.7442 68.5151 50.0243 67.7591 50.0751C67.634 50.0829 67.3033 50.2859 67.5841 50.2676C68.2194 50.2247 68.7409 49.8546 68.7558 49.1817C68.761 48.9612 68.7558 48.7398 68.7558 48.5184V21.8047C68.7558 21.6419 68.7654 21.4766 68.7558 21.3138C68.7243 20.7363 68.2868 20.4056 67.7338 20.3933C66.4764 20.3653 65.2164 20.3933 63.959 20.3933H19.4023C18.7084 20.3933 18.0364 20.6969 18.0206 21.4879C18.0075 22.1564 18.0206 22.8267 18.0206 23.4952V47.7397C18.0206 48.2734 17.9918 48.8159 18.0206 49.3497C18.0661 50.1906 18.7924 50.2676 19.4346 50.2676H67.5798C67.7084 50.2676 68.0374 50.0751 67.7565 50.0751Z" fill="#6A79A8"/>
<path d="M70.2108 57.3124H17.3958C17.0682 57.3114 16.753 57.187 16.513 56.964C16.273 56.7411 16.1258 56.4359 16.1008 56.1093L13.6053 24.0563C13.5918 23.8775 13.6153 23.6979 13.6745 23.5287C13.7336 23.3595 13.8271 23.2043 13.949 23.0729C14.0709 22.9414 14.2186 22.8366 14.3829 22.7649C14.5472 22.6932 14.7245 22.6562 14.9038 22.6563H72.7019C72.8812 22.6562 73.0585 22.6932 73.2229 22.7649C73.3872 22.8366 73.535 22.9414 73.657 23.0728C73.7789 23.2042 73.8725 23.3594 73.9317 23.5286C73.9909 23.6978 74.0146 23.8775 74.0013 24.0563L71.5093 56.1093C71.4843 56.4365 71.3367 56.7423 71.0959 56.9654C70.8552 57.1885 70.539 57.3124 70.2108 57.3124Z" fill="white"/>
<path d="M70.2972 57.2102H21.9176C20.4554 57.2102 18.9749 57.2794 17.5137 57.2102C16.3911 57.1577 16.3167 56.1777 16.2519 55.3404C16.1644 54.2233 16.0769 53.1056 15.9894 51.9874L15.0882 40.3752L14.1694 28.5627C14.0761 27.3611 13.9828 26.1597 13.8894 24.9586C13.8256 24.1387 13.5963 22.8201 14.8239 22.7571C16.0883 22.6924 17.3728 22.7571 18.6381 22.7571H71.2413C71.6788 22.7571 72.1242 22.7387 72.5634 22.7571C73.2976 22.7877 73.8147 23.3749 73.7884 24.1037C73.7814 24.2884 73.7596 24.4739 73.7456 24.6585C73.5274 27.462 73.3092 30.2652 73.0911 33.0681C72.7644 37.2681 72.4377 41.4707 72.1111 45.676C71.869 48.7916 71.6269 51.9075 71.3848 55.0236C71.3227 55.8172 71.4084 57.1639 70.2963 57.2111C70.1642 57.2172 69.8404 57.4255 70.1213 57.4124C70.9394 57.3756 71.6429 56.869 71.7217 56.0124C71.7444 55.7665 71.7602 55.5197 71.7786 55.2739L72.0542 51.7336C72.3645 47.7529 72.6743 43.7714 72.9834 39.789C73.2891 35.869 73.5939 31.949 73.8978 28.029C73.9853 26.909 74.0728 25.7887 74.1603 24.6681C74.1761 24.4625 74.1979 24.256 74.2084 24.0495C74.2522 23.1894 73.6301 22.5777 72.7848 22.5524C71.5073 22.5147 70.2219 22.5524 68.9436 22.5524H16.0332C15.6832 22.5524 15.3376 22.5401 14.9911 22.5524C14.1056 22.5839 13.3531 23.2007 13.3942 24.1274C13.4029 24.3234 13.4248 24.5194 13.4397 24.7145L14.1152 33.4032L15.1153 46.2657C15.3486 49.2892 15.5834 52.3117 15.8197 55.3334C15.8398 55.5871 15.8556 55.8409 15.8792 56.0937C15.9509 56.8751 16.5302 57.3835 17.3072 57.4062C17.6659 57.4176 18.0273 57.4062 18.3869 57.4062H70.1222C70.2561 57.4115 70.5781 57.2102 70.2972 57.2102Z" fill="#6A79A8"/>
<path d="M55.4044 39.6609C55.5888 39.1312 55.6224 38.5606 55.5016 38.0129C55.3808 37.4651 55.1103 36.9617 54.7202 36.5586C54.3301 36.1555 53.8358 35.8687 53.2923 35.73C52.7487 35.5914 52.1774 35.6064 51.6419 35.7733C51.0425 34.3619 50.3487 33.0118 49.2059 31.9128C46.9309 29.7253 43.4642 28.8144 40.4997 30.0394C39.1688 30.5898 38.0042 31.4963 37.0679 32.583C36.5803 33.1526 36.1514 33.77 35.7878 34.4258C35.6959 34.5903 34.8647 36.4383 34.8944 36.4479C34.5536 36.3819 34.2073 36.3479 33.8602 36.3464C30.2175 36.3464 27.2539 39.5157 27.2539 43.4094C27.2539 47.3032 30.2175 50.4724 33.8602 50.4724H41.5365V46.5988C41.5365 46.5255 41.5074 46.4551 41.4555 46.4033C41.4037 46.3514 41.3334 46.3223 41.26 46.3223H38.7138C38.5696 46.3222 38.4286 46.2794 38.3087 46.1993C38.1888 46.1191 38.0953 46.0053 38.0401 45.872C37.9848 45.7388 37.9703 45.5922 37.9983 45.4507C38.0264 45.3093 38.0957 45.1793 38.1975 45.0772L43.2795 39.9952C43.3483 39.9259 43.43 39.8708 43.5202 39.8333C43.6103 39.7958 43.7069 39.7764 43.8045 39.7764C43.9021 39.7764 43.9988 39.7958 44.0889 39.8333C44.179 39.8708 44.2608 39.9259 44.3295 39.9952L49.4115 45.0772C49.5134 45.1793 49.5827 45.3093 49.6107 45.4507C49.6388 45.5922 49.6242 45.7388 49.569 45.872C49.5138 46.0053 49.4203 46.1191 49.3004 46.1993C49.1805 46.2794 49.0395 46.3222 48.8953 46.3223H46.2327C46.1963 46.3222 46.1603 46.3293 46.1267 46.3431C46.0931 46.357 46.0626 46.3773 46.0369 46.403C46.0112 46.4287 45.9908 46.4593 45.977 46.4928C45.9631 46.5264 45.956 46.5625 45.9562 46.5988V50.4724H54.9372C56.3349 50.4753 57.6795 49.9377 58.69 48.972C59.7004 48.0063 60.2983 46.6873 60.3587 45.2909C60.419 43.8945 59.9371 42.5288 59.0138 41.4796C58.0904 40.4303 56.7971 39.7786 55.4044 39.6609Z" fill="#6A1CA6" fill-opacity="0.12"/>
<path d="M55.614 39.632C55.9885 38.4735 55.7015 37.2013 54.802 36.3648C53.9393 35.5641 52.7318 35.3603 51.6188 35.6779L51.8559 35.7164C51.1559 34.0845 50.2984 32.534 48.9071 31.3895C47.6532 30.3573 46.1398 29.6893 44.5321 29.4584C41.0925 28.9806 37.9338 30.8461 36.0578 33.6584C35.7321 34.1589 35.4488 34.6857 35.2108 35.2334C35.0813 35.5213 34.9483 35.8091 34.8275 36.0996C34.7811 36.2081 34.6665 36.3788 34.6796 36.5013L35.0218 36.3376C30.8489 35.6088 27.1844 39.0851 27.0435 43.1836C26.9735 45.2163 27.7313 47.2498 29.189 48.683C30.5015 49.9719 32.1964 50.5809 34.0173 50.5809H41.4548C41.5484 50.5809 41.7505 50.5363 41.7505 50.4138V47.1316C41.7505 46.7554 41.8573 46.2566 41.3454 46.2111C40.8335 46.1656 40.2901 46.2111 39.7704 46.2111C39.2506 46.2111 38.303 46.3861 38.2024 45.6389C38.1473 45.2268 38.4964 44.9739 38.7536 44.7166L41.4863 41.984L42.8084 40.6619C43.0053 40.465 43.2083 40.1841 43.441 40.0293C43.896 39.7256 44.1918 40.1378 44.4831 40.4291L45.6513 41.5973L48.5283 44.4743C48.7496 44.6956 48.9929 44.9118 49.1985 45.1445C49.4313 45.4131 49.5223 45.8926 49.181 46.1359C49.0148 46.2549 48.7479 46.2111 48.5606 46.2111H46.5831C46.2174 46.2111 45.7755 46.2365 45.7449 46.695C45.6679 47.8439 45.7449 49.0225 45.7449 50.1749V50.5293C45.7449 50.5783 45.8438 50.5835 45.8718 50.5835H52.7344C53.7975 50.5835 54.9333 50.6798 55.9833 50.4733C59.4666 49.7873 61.6069 45.9451 60.0406 42.6718C59.622 41.8075 58.9873 41.066 58.198 40.519C57.4087 39.972 56.4915 39.6382 55.5353 39.5498C55.4136 39.5384 55.0426 39.7431 55.2728 39.765C58.8384 40.115 61.1283 43.9038 59.7055 47.2165C59.0283 48.7915 57.5723 49.999 55.8704 50.2869C54.9271 50.447 53.9078 50.3578 52.9575 50.3578H46.0398L46.1666 50.4129V46.9785C46.1537 46.833 46.1537 46.6866 46.1666 46.541C46.1964 46.3835 46.1378 46.4535 46.2926 46.4299C46.4284 46.4198 46.5647 46.4198 46.7004 46.4299C47.361 46.4299 48.0216 46.4369 48.6823 46.4299C49.2169 46.4238 49.8294 46.1718 49.8329 45.5435C49.8329 45.1506 49.5188 44.9083 49.2659 44.6554L46.4239 41.8134L45.0624 40.4519C44.8594 40.248 44.6599 39.9943 44.421 39.8289C43.511 39.1963 42.6054 40.4781 42.0585 41.0294L39.0161 44.063C38.541 44.5381 37.0815 45.6301 38.1359 46.2978C38.5384 46.5524 39.2384 46.4334 39.6855 46.4334H40.7434C40.9788 46.4334 41.2684 46.3538 41.3244 46.6574C41.4058 47.0949 41.3244 47.6313 41.3244 48.0775V50.5275L41.6201 50.3595H34.95C34.3585 50.3595 33.7574 50.3875 33.1694 50.3096C32.212 50.1795 31.2983 49.8271 30.5015 49.2806C27.2124 47.0301 26.5194 42.2089 28.8696 39.0335C30.2355 37.1881 32.4703 36.1556 34.7601 36.5555C34.852 36.5713 35.1163 36.5249 35.1031 36.391C35.1341 36.2934 35.1739 36.1988 35.2221 36.1084C35.3193 35.8791 35.4199 35.6525 35.5214 35.4259C35.6806 35.0689 35.8303 34.7031 36.0166 34.3601C36.8336 32.855 38.0265 31.5871 39.479 30.6799C42.2606 28.9806 45.772 29.4234 48.3051 31.3799C49.7926 32.5314 50.7044 34.1221 51.4333 35.8258C51.4674 35.9045 51.6083 35.8818 51.6704 35.8643C53.9716 35.2089 55.8993 37.5031 55.1931 39.6863C55.1511 39.8201 55.5711 39.765 55.614 39.632Z" fill="#6A79A8"/>
</g>
<defs>
<clipPath id="clip0_1813_7715">
<rect width="87.5" height="70" fill="white"/>
</clipPath>
</defs>
</svg>