<svg width="24" height="24" viewBox="0 0 24 24" fill="none" xmlns="http://www.w3.org/2000/svg">
<path d="M18.0958 6.9148C18.4851 6.52544 18.4851 5.89416 18.0958 5.5048C17.7064 5.11544 17.0751 5.11544 16.6858 5.5048L11.8008 10.3898L6.91578 5.5048C6.52642 5.11544 5.89514 5.11544 5.50578 5.5048C5.11642 5.89416 5.11642 6.52544 5.50578 6.9148L10.3908 11.7998L5.50578 16.6848C5.11642 17.0742 5.11642 17.7054 5.50578 18.0948C5.89514 18.4842 6.52642 18.4842 6.91578 18.0948L11.8008 13.2098L16.6858 18.0948C17.0751 18.4842 17.7064 18.4842 18.0958 18.0948C18.4851 17.7054 18.4851 17.0742 18.0958 16.6848L13.2108 11.7998L18.0958 6.9148Z" fill="black" fill-opacity="0.65"/>
</svg>
