<svg width="17" height="22" viewBox="0 0 17 22" fill="none" xmlns="http://www.w3.org/2000/svg">
<g clip-path="url(#clip0_7800_43313)">
<path fill-rule="evenodd" clip-rule="evenodd" d="M0 0H10.8525L16.499 5.3847V22H0V0Z" fill="black" fill-opacity="0.65"/>
<path fill-rule="evenodd" clip-rule="evenodd" d="M16.4989 5.3847H10.8525V0L16.4989 5.3847Z" fill="#989898"/>
<path fill-rule="evenodd" clip-rule="evenodd" d="M4.7324 8.63797C5.43872 8.63797 6.01209 9.21134 6.01209 9.91351C6.01209 10.6157 5.43872 11.1891 4.7324 11.1891C4.02607 11.1891 3.4527 10.6157 3.4527 9.91351C3.4527 9.21134 4.02607 8.63797 4.7324 8.63797ZM3.53164 15.6597L5.68801 12.8095L7.03834 13.8274L9.31521 10.6281L13.0504 15.6638L3.53579 15.6555L3.53164 15.6597Z" fill="white"/>
<path fill-rule="evenodd" clip-rule="evenodd" d="M16.499 5.3847H11.4508V6.8763L16.499 5.3847Z" fill="black" fill-opacity="0.35"/>
</g>
<defs>
<clipPath id="clip0_7800_43313">
<rect width="16.499" height="22" rx="2" fill="white"/>
</clipPath>
</defs>
</svg>
