<svg width="135" height="128" viewBox="0 0 135 128" fill="none" xmlns="http://www.w3.org/2000/svg">
<g clip-path="url(#clip0_12595_86707)">
<path fill-rule="evenodd" clip-rule="evenodd" d="M43.4153 25C67.3851 25 86.8307 34.7883 86.8307 46.8428C86.8307 58.8973 67.3552 68.6856 43.4153 68.6856C19.4755 68.6856 0 58.8973 0 46.8428C0 34.7883 19.4755 25 43.4153 25Z" fill="#F7A6A3"/>
<path fill-rule="evenodd" clip-rule="evenodd" d="M43.4152 27.8541C64.244 27.8541 81.1577 36.3661 81.1577 46.8428C81.1577 57.3195 64.244 65.8316 43.4152 65.8316C22.5864 65.8316 5.67773 57.3246 5.67773 46.8428C5.67773 36.3611 22.5864 27.8541 43.4152 27.8541Z" fill="#CEE3F6"/>
<path fill-rule="evenodd" clip-rule="evenodd" d="M7.87998 53.2444C6.48844 51.4003 5.71703 49.158 5.67773 46.8428C5.67773 36.3661 22.5864 27.8541 43.4152 27.8541C64.244 27.8541 81.1577 36.3661 81.1577 46.8428C81.116 49.1575 80.3448 51.3991 78.9555 53.2444C73.727 45.9132 59.7796 40.6824 43.4152 40.6824C27.0508 40.6824 13.1034 45.9333 7.87998 53.2444Z" fill="#97C3E8"/>
<path fill-rule="evenodd" clip-rule="evenodd" d="M5.94739 49.1191C5.76771 48.3721 5.67719 47.6063 5.67774 46.8378C5.67774 36.3611 22.5865 27.8491 43.4152 27.8491C64.244 27.8491 81.1577 36.3611 81.1577 46.8378C81.159 47.6058 81.0719 48.3713 80.898 49.1191C78.6558 39.7126 62.7209 32.4066 43.4452 32.4066C24.1695 32.4066 8.21454 39.7126 5.99234 49.1191H5.94739Z" fill="#A93C41"/>
<path fill-rule="evenodd" clip-rule="evenodd" d="M86.8307 59.8571C86.8307 71.9166 67.3552 81.6999 43.4153 81.6999H43.1357C38.0002 81.7023 32.8763 81.2076 27.8349 80.2226L27.6751 80.1924C20.9736 78.886 15.071 76.7555 10.4868 74.0521C3.96001 70.2483 0 65.2838 0 59.8571V46.8428C0 58.9023 19.4755 68.6856 43.4153 68.6856C67.3552 68.6856 86.8307 58.8973 86.8307 46.8428V59.8571Z" fill="#F1595F"/>
<path d="M89.3876 79.7C89.3011 79.705 89.2144 79.705 89.128 79.7C88.8233 79.6686 88.5244 79.5959 88.2391 79.4839L87.9994 79.3734L74.5163 72.5849C73.8652 72.2593 73.3416 71.7232 73.0294 71.0625C72.7171 70.4018 72.6344 69.6547 72.7945 68.9411C72.9545 68.2274 73.3481 67.5884 73.912 67.1267C74.476 66.6649 75.1776 66.407 75.9046 66.3943C76.4237 66.3935 76.9361 66.5121 77.4027 66.741L90.8857 73.5296C91.5328 73.8581 92.0521 74.3948 92.3613 75.0544C92.6705 75.7139 92.7517 76.4585 92.5922 77.1699C92.4327 77.8813 92.0415 78.5186 91.4808 78.9806C90.9201 79.4427 90.222 79.703 89.4975 79.7201L89.3876 79.7Z" fill="#A93C41"/>
<path d="M127.619 103C127.38 103 127.32 103 127.085 102.97C126.373 102.906 125.675 102.737 125.013 102.467C124.793 102.377 124.743 102.347 124.513 102.246L86.6609 83.2023C84.9431 82.3361 83.6377 80.8187 83.0318 78.984C82.4259 77.1493 82.5691 75.1475 83.43 73.419C84.2908 71.6905 85.7988 70.377 87.6222 69.7673C89.4456 69.1576 91.4349 69.3017 93.1527 70.168L131.005 89.212C132.432 89.9321 133.583 91.1068 134.278 92.5531C134.973 93.9994 135.173 95.6364 134.848 97.2092C134.523 98.7821 133.69 100.203 132.479 101.25C131.269 102.297 129.748 102.912 128.154 103C127.974 103 127.799 103 127.619 103Z" fill="#F1595F"/>
<path d="M123.664 101.799L90.9956 85.363C89.2784 84.4967 87.9737 82.9796 87.3682 81.1454C86.7628 79.3111 86.9063 77.31 87.7671 75.5822C88.628 73.8544 90.1357 72.5415 91.9586 71.9323C93.7815 71.323 95.7703 71.4674 97.4874 72.3337L130.201 88.815L130.141 88.7849C128.424 87.9186 126.434 87.7745 124.611 88.3842C122.787 88.9939 121.279 90.3074 120.419 92.0359C119.558 93.7643 119.414 95.7661 120.02 97.6009C120.626 99.4356 121.932 100.953 123.649 101.819L123.664 101.799Z" fill="#A93C41"/>
<path fill-rule="evenodd" clip-rule="evenodd" d="M70.4513 53.7017C68.1275 55.8208 65.4717 57.539 62.5912 58.7868C48.449 65.1532 28.5391 63.3694 18.1471 54.8071C17.4803 54.2613 16.8466 53.6757 16.2495 53.0535C31.8948 59.9827 53.5725 60.5254 70.4413 53.7017H70.4513Z" fill="#F2F6FC"/>
</g>
<path fill-rule="evenodd" clip-rule="evenodd" d="M134.892 57.8262C136.728 78.9841 114.87 93.0492 97.8507 105.824C81.6593 117.978 63.1362 132.242 43.7933 126.206C25.25 120.419 21.0068 97.711 13.9832 79.652C7.97946 64.2155 1.24669 48.2259 7.49943 32.888C14.1907 16.4745 28.7625 3.27713 46.2978 0.384495C62.878 -2.35058 76.2464 10.0895 90.3341 19.2235C107.689 30.4761 133.107 37.2659 134.892 57.8262Z" fill="#F1595F" fill-opacity="0.12"/>
<defs>
<clipPath id="clip0_12595_86707">
<rect width="135" height="78" fill="white" transform="translate(0 25)"/>
</clipPath>
</defs>
</svg>
